<svg width="698" height="108" viewBox="0 0 698 108" fill="none" xmlns="http://www.w3.org/2000/svg"><path d="M15.336 27.076c.912.144 1.74.516 2.484 1.116.768.6 1.368 1.344 1.8 2.232.456.888.684 1.836.684 2.844 0 1.272-.324 2.424-.972 3.456-.648 1.008-1.596 1.812-2.844 2.412-1.224.576-2.676.864-4.356.864h-9.36V14.908h9c1.704 0 3.156.288 4.356.864 1.2.552 2.1 1.308 2.7 2.268.6.96.9 2.04.9 3.24 0 1.488-.408 2.724-1.224 3.708-.792.96-1.848 1.656-3.168 2.088zm-9.288-1.332h5.508c1.536 0 2.724-.36 3.564-1.08.84-.72 1.26-1.716 1.26-2.988s-.42-2.268-1.26-2.988c-.84-.72-2.052-1.08-3.636-1.08H6.048v8.136zM11.844 37.3c1.632 0 2.904-.384 3.816-1.152.912-.768 1.368-1.836 1.368-3.204 0-1.392-.48-2.484-1.44-3.276-.96-.816-2.244-1.224-3.852-1.224H6.048V37.3h5.796zm29.9981-17.028l-11.88 29.016h-3.384l3.888-9.504-7.956-19.512h3.636l6.192 15.984 6.12-15.984h3.384zm14.6548-3.204c-.624 0-1.152-.216-1.584-.648-.408-.432-.612-.96-.612-1.584 0-.624.204-1.152.612-1.584.432-.432.96-.648 1.584-.648.624 0 1.14.216 1.548.648.432.432.648.96.648 1.584 0 .624-.216 1.152-.648 1.584-.408.432-.924.648-1.548.648zm1.62 27.216c0 1.752-.444 3.036-1.332 3.852-.888.816-2.184 1.224-3.888 1.224h-1.908v-2.772h1.368c.912 0 1.548-.18 1.908-.54.384-.36.576-.972.576-1.836v-23.94h3.276v24.012zm14.1497-3.96c-1.848 0-3.528-.42-5.04-1.26-1.488-.84-2.664-2.028-3.528-3.564-.84-1.56-1.26-3.36-1.26-5.4 0-2.016.432-3.792 1.296-5.328.888-1.56 2.088-2.748 3.6-3.564 1.512-.84 3.204-1.26 5.076-1.26 1.872 0 3.564.42 5.076 1.26 1.512.816 2.7 1.992 3.564 3.528.888 1.536 1.332 3.324 1.332 5.364s-.456 3.84-1.368 5.4c-.888 1.536-2.1 2.724-3.636 3.564-1.536.84-3.24 1.26-5.112 1.26zm0-2.88c1.176 0 2.28-.276 3.312-.828 1.032-.552 1.86-1.38 2.484-2.484.648-1.104.972-2.448.972-4.032s-.312-2.928-.936-4.032c-.624-1.104-1.44-1.92-2.448-2.448-1.008-.552-2.1-.828-3.276-.828-1.2 0-2.304.276-3.312.828-.984.528-1.776 1.344-2.376 2.448-.6 1.104-.9 2.448-.9 4.032 0 1.608.288 2.964.864 4.068.6 1.104 1.392 1.932 2.376 2.484.984.528 2.064.792 3.24.792zM88.382 17.068c-.624 0-1.152-.216-1.584-.648-.432-.432-.648-.96-.648-1.584 0-.624.216-1.152.648-1.584.432-.432.96-.648 1.584-.648.6 0 1.104.216 1.512.648.432.432.648.96.648 1.584 0 .624-.216 1.152-.648 1.584-.408.432-.912.648-1.512.648zm1.584 3.204V40H86.69V20.272h3.276zm15.195-.36c2.4 0 4.344.732 5.832 2.196 1.488 1.44 2.232 3.528 2.232 6.264V40h-3.24V28.84c0-1.968-.492-3.468-1.476-4.5-.984-1.056-2.328-1.584-4.032-1.584-1.728 0-3.108.54-4.14 1.62-1.0077 1.08-1.5117 2.652-1.5117 4.716V40h-3.276V20.272h3.276v2.808c.648-1.008 1.5237-1.788 2.6277-2.34 1.128-.552 2.364-.828 3.708-.828zm15.108-2.844c-.624 0-1.152-.216-1.584-.648-.432-.432-.648-.96-.648-1.584 0-.624.216-1.152.648-1.584.432-.432.96-.648 1.584-.648.6 0 1.104.216 1.512.648.432.432.648.96.648 1.584 0 .624-.216 1.152-.648 1.584-.408.432-.912.648-1.512.648zm1.584 3.204V40h-3.276V20.272h3.276zm15.195-.36c2.4 0 4.344.732 5.832 2.196 1.488 1.44 2.232 3.528 2.232 6.264V40h-3.24V28.84c0-1.968-.492-3.468-1.476-4.5-.984-1.056-2.328-1.584-4.032-1.584-1.728 0-3.108.54-4.14 1.62-1.008 1.08-1.512 2.652-1.512 4.716V40h-3.276V20.272h3.276v2.808c.648-1.008 1.524-1.788 2.628-2.34 1.128-.552 2.364-.828 3.708-.828zm21.551.036c1.704 0 3.192.372 4.464 1.116 1.296.744 2.256 1.68 2.88 2.808v-3.6h3.312v20.16c0 1.8-.384 3.396-1.152 4.788-.768 1.416-1.872 2.52-3.312 3.312-1.416.792-3.072 1.188-4.968 1.188-2.592 0-4.752-.612-6.48-1.836-1.728-1.224-2.748-2.892-3.06-5.004h3.24c.36 1.2 1.104 2.16 2.232 2.88 1.128.744 2.484 1.116 4.068 1.116 1.8 0 3.264-.564 4.392-1.692 1.152-1.128 1.728-2.712 1.728-4.752v-4.14c-.648 1.152-1.608 2.112-2.88 2.88-1.272.768-2.76 1.152-4.464 1.152-1.752 0-3.348-.432-4.788-1.296-1.416-.864-2.532-2.076-3.348-3.636-.816-1.56-1.224-3.336-1.224-5.328 0-2.016.408-3.78 1.224-5.292.816-1.536 1.932-2.724 3.348-3.564 1.44-.84 3.036-1.26 4.788-1.26zm7.344 10.152c0-1.488-.3-2.784-.9-3.888-.6-1.104-1.416-1.944-2.448-2.52-1.008-.6-2.124-.9-3.348-.9-1.224 0-2.34.288-3.348.864-1.008.576-1.812 1.416-2.412 2.52-.6 1.104-.9 2.4-.9 3.888 0 1.512.3 2.832.9 3.96.6 1.104 1.404 1.956 2.412 2.556 1.008.576 2.124.864 3.348.864 1.224 0 2.34-.288 3.348-.864 1.032-.6 1.848-1.452 2.448-2.556.6-1.128.9-2.436.9-3.924zm35.438-9.828l-11.88 29.016h-3.384l3.888-9.504-7.956-19.512h3.636l6.192 15.984 6.12-15.984h3.384zm11.897 20.052c-1.848 0-3.528-.42-5.04-1.26-1.488-.84-2.664-2.028-3.528-3.564-.84-1.56-1.26-3.36-1.26-5.4 0-2.016.432-3.792 1.296-5.328.888-1.56 2.088-2.748 3.6-3.564 1.512-.84 3.204-1.26 5.076-1.26 1.872 0 3.564.42 5.076 1.26 1.512.816 2.7 1.992 3.564 3.528.888 1.536 1.332 3.324 1.332 5.364s-.456 3.84-1.368 5.4c-.888 1.536-2.1 2.724-3.636 3.564-1.536.84-3.24 1.26-5.112 1.26zm0-2.88c1.176 0 2.28-.276 3.312-.828 1.032-.552 1.86-1.38 2.484-2.484.648-1.104.972-2.448.972-4.032s-.312-2.928-.936-4.032c-.624-1.104-1.44-1.92-2.448-2.448-1.008-.552-2.1-.828-3.276-.828-1.2 0-2.304.276-3.312.828-.984.528-1.776 1.344-2.376 2.448-.6 1.104-.9 2.448-.9 4.032 0 1.608.288 2.964.864 4.068.6 1.104 1.392 1.932 2.376 2.484.984.528 2.064.792 3.24.792zm31.92-17.172V40h-3.276v-2.916c-.624 1.008-1.5 1.8-2.628 2.376-1.104.552-2.328.828-3.672.828-1.536 0-2.916-.312-4.14-.936-1.224-.648-2.196-1.608-2.916-2.88-.696-1.272-1.044-2.82-1.044-4.644V20.272h3.24v11.124c0 1.944.492 3.444 1.476 4.5.984 1.032 2.328 1.548 4.032 1.548 1.752 0 3.132-.54 4.14-1.62 1.008-1.08 1.512-2.652 1.512-4.716V20.272h3.276zm13.905 9.828c0-2.04.408-3.816 1.224-5.328.816-1.536 1.944-2.724 3.384-3.564 1.464-.84 3.132-1.26 5.004-1.26 2.424 0 4.416.588 5.976 1.764 1.584 1.176 2.628 2.808 3.132 4.896h-3.528c-.336-1.2-.996-2.148-1.98-2.844-.96-.696-2.16-1.044-3.6-1.044-1.872 0-3.384.648-4.536 1.944-1.152 1.272-1.728 3.084-1.728 5.436 0 2.376.576 4.212 1.728 5.508 1.152 1.296 2.664 1.944 4.536 1.944 1.44 0 2.64-.336 3.6-1.008.96-.672 1.62-1.632 1.98-2.88h3.528c-.528 2.016-1.584 3.636-3.168 4.86-1.584 1.2-3.564 1.8-5.94 1.8-1.872 0-3.54-.42-5.004-1.26-1.44-.84-2.568-2.028-3.384-3.564-.816-1.536-1.224-3.336-1.224-5.4zm21.867-.036c0-2.016.408-3.78 1.224-5.292.816-1.536 1.932-2.724 3.348-3.564 1.44-.84 3.036-1.26 4.788-1.26 1.728 0 3.228.372 4.5 1.116 1.272.744 2.22 1.68 2.844 2.808v-3.6h3.312V40h-3.312v-3.672c-.648 1.152-1.62 2.112-2.916 2.88-1.272.744-2.76 1.116-4.464 1.116-1.752 0-3.336-.432-4.752-1.296-1.416-.864-2.532-2.076-3.348-3.636-.816-1.56-1.224-3.336-1.224-5.328zm16.704.036c0-1.488-.3-2.784-.9-3.888-.6-1.104-1.416-1.944-2.448-2.52-1.008-.6-2.124-.9-3.348-.9-1.224 0-2.34.288-3.348.864-1.008.576-1.812 1.416-2.412 2.52-.6 1.104-.9 2.4-.9 3.888 0 1.512.3 2.832.9 3.96.6 1.104 1.404 1.956 2.412 2.556 1.008.576 2.124.864 3.348.864 1.224 0 2.34-.288 3.348-.864 1.032-.6 1.848-1.452 2.448-2.556.6-1.128.9-2.436.9-3.924zm18.46-10.188c2.4 0 4.344.732 5.832 2.196 1.488 1.44 2.232 3.528 2.232 6.264V40h-3.24V28.84c0-1.968-.492-3.468-1.476-4.5-.984-1.056-2.328-1.584-4.032-1.584-1.728 0-3.108.54-4.14 1.62-1.008 1.08-1.512 2.652-1.512 4.716V40h-3.276V20.272h3.276v2.808c.648-1.008 1.524-1.788 2.628-2.34 1.128-.552 2.364-.828 3.708-.828zm26.289 4.032c.672-1.176 1.656-2.136 2.952-2.88 1.296-.744 2.772-1.116 4.428-1.116 1.776 0 3.372.42 4.788 1.26 1.416.84 2.532 2.028 3.348 3.564.816 1.512 1.224 3.276 1.224 5.292 0 1.992-.408 3.768-1.224 5.328-.816 1.56-1.944 2.772-3.384 3.636-1.416.864-3 1.296-4.752 1.296-1.704 0-3.204-.372-4.5-1.116-1.272-.744-2.232-1.692-2.88-2.844V40h-3.276V13.36h3.276v10.584zm13.392 6.12c0-1.488-.3-2.784-.9-3.888-.6-1.104-1.416-1.944-2.448-2.52-1.008-.576-2.124-.864-3.348-.864-1.2 0-2.316.3-3.348.9-1.008.576-1.824 1.428-2.448 2.556-.6 1.104-.9 2.388-.9 3.852 0 1.488.3 2.796.9 3.924.624 1.104 1.44 1.956 2.448 2.556 1.032.576 2.148.864 3.348.864 1.224 0 2.34-.288 3.348-.864 1.032-.6 1.848-1.452 2.448-2.556.6-1.128.9-2.448.9-3.96zm25.66-.684c0 .624-.036 1.284-.108 1.98h-15.768c.12 1.944.78 3.468 1.98 4.572 1.224 1.08 2.7 1.62 4.428 1.62 1.416 0 2.592-.324 3.528-.972.96-.672 1.632-1.56 2.016-2.664h3.528c-.528 1.896-1.584 3.444-3.168 4.644-1.584 1.176-3.552 1.764-5.904 1.764-1.872 0-3.552-.42-5.04-1.26-1.464-.84-2.616-2.028-3.456-3.564-.84-1.56-1.26-3.36-1.26-5.4 0-2.04.408-3.828 1.224-5.364.816-1.536 1.956-2.712 3.42-3.528 1.488-.84 3.192-1.26 5.112-1.26 1.872 0 3.528.408 4.968 1.224 1.44.816 2.544 1.944 3.312 3.384.792 1.416 1.188 3.024 1.188 4.824zm-3.384-.684c0-1.248-.276-2.316-.828-3.204-.552-.912-1.308-1.596-2.268-2.052-.936-.48-1.98-.72-3.132-.72-1.656 0-3.072.528-4.248 1.584-1.152 1.056-1.812 2.52-1.98 4.392h12.456zm17.32-8.784c2.4 0 4.344.732 5.832 2.196 1.488 1.44 2.232 3.528 2.232 6.264V40h-3.24V28.84c0-1.968-.492-3.468-1.476-4.5-.984-1.056-2.328-1.584-4.032-1.584-1.728 0-3.108.54-4.14 1.62-1.008 1.08-1.512 2.652-1.512 4.716V40h-3.276V20.272h3.276v2.808c.648-1.008 1.524-1.788 2.628-2.34 1.128-.552 2.364-.828 3.708-.828zm31.416 9.468c0 .624-.036 1.284-.108 1.98h-15.768c.12 1.944.78 3.468 1.98 4.572 1.224 1.08 2.7 1.62 4.428 1.62 1.416 0 2.592-.324 3.528-.972.96-.672 1.632-1.56 2.016-2.664h3.528c-.528 1.896-1.584 3.444-3.168 4.644-1.584 1.176-3.552 1.764-5.904 1.764-1.872 0-3.552-.42-5.04-1.26-1.464-.84-2.616-2.028-3.456-3.564-.84-1.56-1.26-3.36-1.26-5.4 0-2.04.408-3.828 1.224-5.364.816-1.536 1.956-2.712 3.42-3.528 1.488-.84 3.192-1.26 5.112-1.26 1.872 0 3.528.408 4.968 1.224 1.44.816 2.544 1.944 3.312 3.384.792 1.416 1.188 3.024 1.188 4.824zm-3.384-.684c0-1.248-.276-2.316-.828-3.204-.552-.912-1.308-1.596-2.268-2.052-.936-.48-1.98-.72-3.132-.72-1.656 0-3.072.528-4.248 1.584-1.152 1.056-1.812 2.52-1.98 4.392h12.456zm15.736-5.724h-4.14V40h-3.276V22.972h-2.556v-2.7h2.556v-1.404c0-2.208.564-3.816 1.692-4.824 1.152-1.032 2.988-1.548 5.508-1.548v2.736c-1.44 0-2.46.288-3.06.864-.576.552-.864 1.476-.864 2.772v1.404h4.14v2.7zm5.512-5.904c-.624 0-1.152-.216-1.584-.648-.432-.432-.648-.96-.648-1.584 0-.624.216-1.152.648-1.584.432-.432.96-.648 1.584-.648.6 0 1.104.216 1.512.648.432.432.648.96.648 1.584 0 .624-.216 1.152-.648 1.584-.408.432-.912.648-1.512.648zm1.584 3.204V40h-3.276V20.272h3.276zm9.579 2.7V34.6c0 .96.204 1.644.612 2.052.408.384 1.116.576 2.124.576h2.412V40h-2.952c-1.824 0-3.192-.42-4.104-1.26-.912-.84-1.368-2.22-1.368-4.14V22.972h-2.556v-2.7h2.556v-4.968h3.276v4.968h5.148v2.7h-5.148zm21.991.972c.672-1.176 1.656-2.136 2.952-2.88 1.296-.744 2.772-1.116 4.428-1.116 1.776 0 3.372.42 4.788 1.26 1.416.84 2.532 2.028 3.348 3.564.816 1.512 1.224 3.276 1.224 5.292 0 1.992-.408 3.768-1.224 5.328-.816 1.56-1.944 2.772-3.384 3.636-1.416.864-3 1.296-4.752 1.296-1.704 0-3.204-.372-4.5-1.116-1.272-.744-2.232-1.692-2.88-2.844V40h-3.276V13.36h3.276v10.584zm13.392 6.12c0-1.488-.3-2.784-.9-3.888-.6-1.104-1.416-1.944-2.448-2.52-1.008-.576-2.124-.864-3.348-.864-1.2 0-2.316.3-3.348.9-1.008.576-1.824 1.428-2.448 2.556-.6 1.104-.9 2.388-.9 3.852 0 1.488.3 2.796.9 3.924.624 1.104 1.44 1.956 2.448 2.556 1.032.576 2.148.864 3.348.864 1.224 0 2.34-.288 3.348-.864 1.032-.6 1.848-1.452 2.448-2.556.6-1.128.9-2.448.9-3.96zm24.652-9.792l-11.88 29.016h-3.384l3.888-9.504-7.956-19.512h3.636l6.192 15.984 6.12-15.984h3.384zm16.167-6.912V40h-3.276V13.36h3.276zm7.275 3.708c-.624 0-1.152-.216-1.584-.648-.432-.432-.648-.96-.648-1.584 0-.624.216-1.152.648-1.584.432-.432.96-.648 1.584-.648.6 0 1.104.216 1.512.648.432.432.648.96.648 1.584 0 .624-.216 1.152-.648 1.584-.408.432-.912.648-1.512.648zm1.584 3.204V40h-3.276V20.272h3.276zm12.568 20.052c-1.512 0-2.868-.252-4.068-.756-1.2-.528-2.148-1.248-2.844-2.16-.696-.936-1.08-2.004-1.152-3.204h3.384c.096.984.552 1.788 1.368 2.412.84.624 1.932.936 3.276.936 1.248 0 2.232-.276 2.952-.828.72-.552 1.08-1.248 1.08-2.088 0-.864-.384-1.5-1.152-1.908-.768-.432-1.956-.852-3.564-1.26-1.464-.384-2.664-.768-3.6-1.152-.912-.408-1.704-.996-2.376-1.764-.648-.792-.972-1.824-.972-3.096 0-1.008.3-1.932.9-2.772.6-.84 1.452-1.5 2.556-1.98 1.104-.504 2.364-.756 3.78-.756 2.184 0 3.948.552 5.292 1.656 1.344 1.104 2.064 2.616 2.16 4.536h-3.276c-.072-1.032-.492-1.86-1.26-2.484-.744-.624-1.752-.936-3.024-.936-1.176 0-2.112.252-2.808.756-.696.504-1.044 1.164-1.044 1.98 0 .648.204 1.188.612 1.62.432.408.96.744 1.584 1.008.648.24 1.536.516 2.664.828 1.416.384 2.568.768 3.456 1.152.888.36 1.644.912 2.268 1.656.648.744.984 1.716 1.008 2.916 0 1.08-.3 2.052-.9 2.916-.6.864-1.452 1.548-2.556 2.052-1.08.48-2.328.72-3.744.72zm15.82-17.352V34.6c0 .96.204 1.644.612 2.052.408.384 1.116.576 2.124.576h2.412V40h-2.952c-1.824 0-3.192-.42-4.104-1.26-.912-.84-1.368-2.22-1.368-4.14V22.972h-2.556v-2.7h2.556v-4.968h3.276v4.968h5.148v2.7h-5.148zm27.117 6.408c0 .624-.036 1.284-.108 1.98h-15.768c.12 1.944.78 3.468 1.98 4.572 1.224 1.08 2.7 1.62 4.428 1.62 1.416 0 2.592-.324 3.528-.972.96-.672 1.632-1.56 2.016-2.664h3.528c-.528 1.896-1.584 3.444-3.168 4.644-1.584 1.176-3.552 1.764-5.904 1.764-1.872 0-3.552-.42-5.04-1.26-1.464-.84-2.616-2.028-3.456-3.564-.84-1.56-1.26-3.36-1.26-5.4 0-2.04.408-3.828 1.224-5.364.816-1.536 1.956-2.712 3.42-3.528 1.488-.84 3.192-1.26 5.112-1.26 1.872 0 3.528.408 4.968 1.224 1.44.816 2.544 1.944 3.312 3.384.792 1.416 1.188 3.024 1.188 4.824zm-3.384-.684c0-1.248-.276-2.316-.828-3.204-.552-.912-1.308-1.596-2.268-2.052-.936-.48-1.98-.72-3.132-.72-1.656 0-3.072.528-4.248 1.584-1.152 1.056-1.812 2.52-1.98 4.392h12.456zm17.321-8.784c2.4 0 4.344.732 5.832 2.196 1.488 1.44 2.232 3.528 2.232 6.264V40h-3.24V28.84c0-1.968-.492-3.468-1.476-4.5-.984-1.056-2.328-1.584-4.032-1.584-1.728 0-3.108.54-4.14 1.62-1.008 1.08-1.512 2.652-1.512 4.716V40h-3.276V20.272h3.276v2.808c.648-1.008 1.524-1.788 2.628-2.34 1.128-.552 2.364-.828 3.708-.828zm15.107-2.844c-.624 0-1.152-.216-1.584-.648-.432-.432-.648-.96-.648-1.584 0-.624.216-1.152.648-1.584.432-.432.96-.648 1.584-.648.6 0 1.104.216 1.512.648.432.432.648.96.648 1.584 0 .624-.216 1.152-.648 1.584-.408.432-.912.648-1.512.648zm1.584 3.204V40h-3.276V20.272h3.276zm15.195-.36c2.4 0 4.344.732 5.832 2.196 1.488 1.44 2.232 3.528 2.232 6.264V40h-3.24V28.84c0-1.968-.492-3.468-1.476-4.5-.984-1.056-2.328-1.584-4.032-1.584-1.728 0-3.108.54-4.14 1.62-1.008 1.08-1.512 2.652-1.512 4.716V40h-3.276V20.272h3.276v2.808c.648-1.008 1.524-1.788 2.628-2.34 1.128-.552 2.364-.828 3.708-.828zm21.552.036c1.704 0 3.192.372 4.464 1.116 1.296.744 2.256 1.68 2.88 2.808v-3.6h3.312v20.16c0 1.8-.384 3.396-1.152 4.788-.768 1.416-1.872 2.52-3.312 3.312-1.416.792-3.072 1.188-4.968 1.188-2.592 0-4.752-.612-6.48-1.836-1.728-1.224-2.748-2.892-3.06-5.004h3.24c.36 1.2 1.104 2.16 2.232 2.88 1.128.744 2.484 1.116 4.068 1.116 1.8 0 3.264-.564 4.392-1.692 1.152-1.128 1.728-2.712 1.728-4.752v-4.14c-.648 1.152-1.608 2.112-2.88 2.88-1.272.768-2.76 1.152-4.464 1.152-1.752 0-3.348-.432-4.788-1.296-1.416-.864-2.532-2.076-3.348-3.636-.816-1.56-1.224-3.336-1.224-5.328 0-2.016.408-3.78 1.224-5.292.816-1.536 1.932-2.724 3.348-3.564 1.44-.84 3.036-1.26 4.788-1.26zm7.344 10.152c0-1.488-.3-2.784-.9-3.888-.6-1.104-1.416-1.944-2.448-2.52-1.008-.6-2.124-.9-3.348-.9-1.224 0-2.34.288-3.348.864-1.008.576-1.812 1.416-2.412 2.52-.6 1.104-.9 2.4-.9 3.888 0 1.512.3 2.832.9 3.96.6 1.104 1.404 1.956 2.412 2.556 1.008.576 2.124.864 3.348.864 1.224 0 2.34-.288 3.348-.864 1.032-.6 1.848-1.452 2.448-2.556.6-1.128.9-2.436.9-3.924zM6.768 76.972V88.6c0 .96.204 1.644.612 2.052.408.384 1.116.576 2.124.576h2.412V94H8.964c-1.824 0-3.192-.42-4.104-1.26-.912-.84-1.368-2.22-1.368-4.14V76.972H.936v-2.7h2.556v-4.968h3.276v4.968h5.148v2.7H6.768zm17.7213 17.352c-1.848 0-3.528-.42-5.04-1.26-1.488-.84-2.664-2.028-3.528-3.564-.84-1.56-1.26-3.36-1.26-5.4 0-2.016.432-3.792 1.296-5.328.888-1.56 2.088-2.748 3.6-3.564 1.512-.84 3.204-1.26 5.076-1.26 1.872 0 3.564.42 5.076 1.26 1.512.816 2.7 1.992 3.564 3.528.888 1.536 1.332 3.324 1.332 5.364s-.456 3.84-1.368 5.4c-.888 1.536-2.1 2.724-3.636 3.564-1.536.84-3.24 1.26-5.112 1.26zm0-2.88c1.176 0 2.28-.276 3.312-.828 1.032-.552 1.86-1.38 2.484-2.484.648-1.104.972-2.448.972-4.032s-.312-2.928-.936-4.032c-.624-1.104-1.44-1.92-2.448-2.448-1.008-.552-2.1-.828-3.276-.828-1.2 0-2.304.276-3.312.828-.984.528-1.776 1.344-2.376 2.448-.6 1.104-.9 2.448-.9 4.032 0 1.608.288 2.964.864 4.068.6 1.104 1.392 1.932 2.376 2.484.984.528 2.064.792 3.24.792zm28.017-14.472V88.6c0 .96.204 1.644.612 2.052.408.384 1.116.576 2.124.576h2.412V94h-2.952c-1.824 0-3.192-.42-4.104-1.26-.912-.84-1.368-2.22-1.368-4.14V76.972h-2.556v-2.7h2.556v-4.968h3.276v4.968h5.148v2.7h-5.148zm18.9093-3.06c1.488 0 2.832.324 4.032.972 1.2.624 2.136 1.572 2.808 2.844.696 1.272 1.044 2.82 1.044 4.644V94h-3.24V82.84c0-1.968-.492-3.468-1.476-4.5-.984-1.056-2.328-1.584-4.032-1.584-1.728 0-3.108.54-4.14 1.62-1.008 1.08-1.512 2.652-1.512 4.716V94h-3.276V67.36h3.276v9.72c.648-1.008 1.536-1.788 2.664-2.34 1.152-.552 2.436-.828 3.852-.828zm31.2354 9.468c0 .624-.036 1.284-.108 1.98H86.7749c.12 1.944.78 3.468 1.98 4.572 1.224 1.08 2.7 1.62 4.428 1.62 1.416 0 2.592-.324 3.528-.972.96-.672 1.632-1.56 2.016-2.664h3.5281c-.528 1.896-1.584 3.444-3.1681 4.644-1.584 1.176-3.552 1.764-5.904 1.764-1.872 0-3.552-.42-5.04-1.26-1.464-.84-2.616-2.028-3.456-3.564-.84-1.56-1.26-3.36-1.26-5.4 0-2.04.408-3.828 1.224-5.364.816-1.536 1.956-2.712 3.42-3.528 1.488-.84 3.192-1.26 5.112-1.26 1.872 0 3.528.408 4.968 1.224 1.44.816 2.5441 1.944 3.3121 3.384.792 1.416 1.188 3.024 1.188 4.824zm-3.3841-.684c0-1.248-.276-2.316-.828-3.204-.552-.912-1.308-1.596-2.268-2.052-.936-.48-1.98-.72-3.132-.72-1.656 0-3.072.528-4.248 1.584-1.152 1.056-1.812 2.52-1.98 4.392h12.456zM119.849 67.36V94h-3.276V67.36h3.276zm4.359 16.704c0-2.016.408-3.78 1.224-5.292.816-1.536 1.932-2.724 3.348-3.564 1.44-.84 3.036-1.26 4.788-1.26 1.728 0 3.228.372 4.5 1.116 1.272.744 2.22 1.68 2.844 2.808v-3.6h3.312V94h-3.312v-3.672c-.648 1.152-1.62 2.112-2.916 2.88-1.272.744-2.76 1.116-4.464 1.116-1.752 0-3.336-.432-4.752-1.296-1.416-.864-2.532-2.076-3.348-3.636-.816-1.56-1.224-3.336-1.224-5.328zm16.704.036c0-1.488-.3-2.784-.9-3.888-.6-1.104-1.416-1.944-2.448-2.52-1.008-.6-2.124-.9-3.348-.9-1.224 0-2.34.288-3.348.864-1.008.576-1.812 1.416-2.412 2.52-.6 1.104-.9 2.4-.9 3.888 0 1.512.3 2.832.9 3.96.6 1.104 1.404 1.956 2.412 2.556 1.008.576 2.124.864 3.348.864 1.224 0 2.34-.288 3.348-.864 1.032-.6 1.848-1.452 2.448-2.556.6-1.128.9-2.436.9-3.924zm12.844-7.128V88.6c0 .96.204 1.644.612 2.052.408.384 1.116.576 2.124.576h2.412V94h-2.952c-1.824 0-3.192-.42-4.104-1.26-.912-.84-1.368-2.22-1.368-4.14V76.972h-2.556v-2.7h2.556v-4.968h3.276v4.968h5.148v2.7h-5.148zm27.118 6.408c0 .624-.036 1.284-.108 1.98h-15.768c.12 1.944.78 3.468 1.98 4.572 1.224 1.08 2.7 1.62 4.428 1.62 1.416 0 2.592-.324 3.528-.972.96-.672 1.632-1.56 2.016-2.664h3.528c-.528 1.896-1.584 3.444-3.168 4.644-1.584 1.176-3.552 1.764-5.904 1.764-1.872 0-3.552-.42-5.04-1.26-1.464-.84-2.616-2.028-3.456-3.564-.84-1.56-1.26-3.36-1.26-5.4 0-2.04.408-3.828 1.224-5.364.816-1.536 1.956-2.712 3.42-3.528 1.488-.84 3.192-1.26 5.112-1.26 1.872 0 3.528.408 4.968 1.224 1.44.816 2.544 1.944 3.312 3.384.792 1.416 1.188 3.024 1.188 4.824zm-3.384-.684c0-1.248-.276-2.316-.828-3.204-.552-.912-1.308-1.596-2.268-2.052-.936-.48-1.98-.72-3.132-.72-1.656 0-3.072.528-4.248 1.584-1.152 1.056-1.812 2.52-1.98 4.392h12.456zm14.692 11.628c-1.512 0-2.868-.252-4.068-.756-1.2-.528-2.148-1.248-2.844-2.16-.696-.936-1.08-2.004-1.152-3.204h3.384c.096.984.552 1.788 1.368 2.412.84.624 1.932.936 3.276.936 1.248 0 2.232-.276 2.952-.828.72-.552 1.08-1.248 1.08-2.088 0-.864-.384-1.5-1.152-1.908-.768-.432-1.956-.852-3.564-1.26-1.464-.384-2.664-.768-3.6-1.152-.912-.408-1.704-.996-2.376-1.764-.648-.792-.972-1.824-.972-3.096 0-1.008.3-1.932.9-2.772.6-.84 1.452-1.5 2.556-1.98 1.104-.504 2.364-.756 3.78-.756 2.184 0 3.948.552 5.292 1.656 1.344 1.104 2.064 2.616 2.16 4.536h-3.276c-.072-1.032-.492-1.86-1.26-2.484-.744-.624-1.752-.936-3.024-.936-1.176 0-2.112.252-2.808.756-.696.504-1.044 1.164-1.044 1.98 0 .648.204 1.188.612 1.62.432.408.96.744 1.584 1.008.648.24 1.536.516 2.664.828 1.416.384 2.568.768 3.456 1.152.888.36 1.644.912 2.268 1.656.648.744.984 1.716 1.008 2.916 0 1.08-.3 2.052-.9 2.916-.6.864-1.452 1.548-2.556 2.052-1.08.48-2.328.72-3.744.72zm15.82-17.352V88.6c0 .96.204 1.644.612 2.052.408.384 1.116.576 2.124.576h2.412V94h-2.952c-1.824 0-3.192-.42-4.104-1.26-.912-.84-1.368-2.22-1.368-4.14V76.972h-2.556v-2.7h2.556v-4.968h3.276v4.968h5.148v2.7h-5.148zm17.491 7.092c0-2.016.408-3.78 1.224-5.292.816-1.536 1.932-2.724 3.348-3.564 1.44-.84 3.036-1.26 4.788-1.26 1.728 0 3.228.372 4.5 1.116 1.272.744 2.22 1.68 2.844 2.808v-3.6h3.312V94h-3.312v-3.672c-.648 1.152-1.62 2.112-2.916 2.88-1.272.744-2.76 1.116-4.464 1.116-1.752 0-3.336-.432-4.752-1.296-1.416-.864-2.532-2.076-3.348-3.636-.816-1.56-1.224-3.336-1.224-5.328zm16.704.036c0-1.488-.3-2.784-.9-3.888-.6-1.104-1.416-1.944-2.448-2.52-1.008-.6-2.124-.9-3.348-.9-1.224 0-2.34.288-3.348.864-1.008.576-1.812 1.416-2.412 2.52-.6 1.104-.9 2.4-.9 3.888 0 1.512.3 2.832.9 3.96.6 1.104 1.404 1.956 2.412 2.556 1.008.576 2.124.864 3.348.864 1.224 0 2.34-.288 3.348-.864 1.032-.6 1.848-1.452 2.448-2.556.6-1.128.9-2.436.9-3.924zm12.124-16.74V94h-3.276V67.36h3.276zm8.86 10.584c.672-1.176 1.656-2.136 2.952-2.88 1.296-.744 2.772-1.116 4.428-1.116 1.776 0 3.372.42 4.788 1.26 1.416.84 2.532 2.028 3.348 3.564.816 1.512 1.224 3.276 1.224 5.292 0 1.992-.408 3.768-1.224 5.328-.816 1.56-1.944 2.772-3.384 3.636-1.416.864-3 1.296-4.752 1.296-1.704 0-3.204-.372-4.5-1.116-1.272-.744-2.232-1.692-2.88-2.844V94h-3.276V67.36h3.276v10.584zm13.392 6.12c0-1.488-.3-2.784-.9-3.888-.6-1.104-1.416-1.944-2.448-2.52-1.008-.576-2.124-.864-3.348-.864-1.2 0-2.316.3-3.348.9-1.008.576-1.824 1.428-2.448 2.556-.6 1.104-.9 2.388-.9 3.852 0 1.488.3 2.796.9 3.924.624 1.104 1.44 1.956 2.448 2.556 1.032.576 2.148.864 3.348.864 1.224 0 2.34-.288 3.348-.864 1.032-.6 1.848-1.452 2.448-2.556.6-1.128.9-2.448.9-3.96zm25.156-9.792V94h-3.276v-2.916c-.624 1.008-1.5 1.8-2.628 2.376-1.104.552-2.328.828-3.672.828-1.536 0-2.916-.312-4.14-.936-1.224-.648-2.196-1.608-2.916-2.88-.696-1.272-1.044-2.82-1.044-4.644V74.272h3.24v11.124c0 1.944.492 3.444 1.476 4.5.984 1.032 2.328 1.548 4.032 1.548 1.752 0 3.132-.54 4.14-1.62 1.008-1.08 1.512-2.652 1.512-4.716V74.272h3.276zm29.255-.36c1.536 0 2.904.324 4.104.972 1.2.624 2.148 1.572 2.844 2.844.696 1.272 1.044 2.82 1.044 4.644V94h-3.24V82.84c0-1.968-.492-3.468-1.476-4.5-.96-1.056-2.268-1.584-3.924-1.584-1.704 0-3.06.552-4.068 1.656-1.008 1.08-1.512 2.652-1.512 4.716V94h-3.24V82.84c0-1.968-.492-3.468-1.476-4.5-.96-1.056-2.268-1.584-3.924-1.584-1.704 0-3.06.552-4.068 1.656-1.008 1.08-1.512 2.652-1.512 4.716V94h-3.276V74.272h3.276v2.844c.648-1.032 1.512-1.824 2.592-2.376 1.104-.552 2.316-.828 3.636-.828 1.656 0 3.12.372 4.392 1.116 1.272.744 2.22 1.836 2.844 3.276.552-1.392 1.464-2.472 2.736-3.24 1.272-.768 2.688-1.152 4.248-1.152zm20.35 20.412c-1.512 0-2.868-.252-4.068-.756-1.2-.528-2.148-1.248-2.844-2.16-.696-.936-1.08-2.004-1.152-3.204h3.384c.096.984.552 1.788 1.368 2.412.84.624 1.932.936 3.276.936 1.248 0 2.232-.276 2.952-.828.72-.552 1.08-1.248 1.08-2.088 0-.864-.384-1.5-1.152-1.908-.768-.432-1.956-.852-3.564-1.26-1.464-.384-2.664-.768-3.6-1.152-.912-.408-1.704-.996-2.376-1.764-.648-.792-.972-1.824-.972-3.096 0-1.008.3-1.932.9-2.772.6-.84 1.452-1.5 2.556-1.98 1.104-.504 2.364-.756 3.78-.756 2.184 0 3.948.552 5.292 1.656 1.344 1.104 2.064 2.616 2.16 4.536h-3.276c-.072-1.032-.492-1.86-1.26-2.484-.744-.624-1.752-.936-3.024-.936-1.176 0-2.112.252-2.808.756-.696.504-1.044 1.164-1.044 1.98 0 .648.204 1.188.612 1.62.432.408.96.744 1.584 1.008.648.24 1.536.516 2.664.828 1.416.384 2.568.768 3.456 1.152.888.36 1.644.912 2.268 1.656.648.744.984 1.716 1.008 2.916 0 1.08-.3 2.052-.9 2.916-.6.864-1.452 1.548-2.556 2.052-1.08.48-2.328.72-3.744.72zm24.698-16.848c.576-1.128 1.392-2.004 2.448-2.628 1.08-.624 2.388-.936 3.924-.936v3.384h-.864c-3.672 0-5.508 1.992-5.508 5.976V94h-3.276V74.272h3.276v3.204zm28.154 5.904c0 .624-.036 1.284-.108 1.98H388.31c.12 1.944.78 3.468 1.98 4.572 1.224 1.08 2.7 1.62 4.428 1.62 1.416 0 2.592-.324 3.528-.972.96-.672 1.632-1.56 2.016-2.664h3.528c-.528 1.896-1.584 3.444-3.168 4.644-1.584 1.176-3.552 1.764-5.904 1.764-1.872 0-3.552-.42-5.04-1.26-1.464-.84-2.616-2.028-3.456-3.564-.84-1.56-1.26-3.36-1.26-5.4 0-2.04.408-3.828 1.224-5.364.816-1.536 1.956-2.712 3.42-3.528 1.488-.84 3.192-1.26 5.112-1.26 1.872 0 3.528.408 4.968 1.224 1.44.816 2.544 1.944 3.312 3.384.792 1.416 1.188 3.024 1.188 4.824zm-3.384-.684c0-1.248-.276-2.316-.828-3.204-.552-.912-1.308-1.596-2.268-2.052-.936-.48-1.98-.72-3.132-.72-1.656 0-3.072.528-4.248 1.584-1.152 1.056-1.812 2.52-1.98 4.392h12.456zm10.984-15.336V94h-3.276V67.36h3.276zm23.584 16.02c0 .624-.036 1.284-.108 1.98h-15.768c.12 1.944.78 3.468 1.98 4.572 1.224 1.08 2.7 1.62 4.428 1.62 1.416 0 2.592-.324 3.528-.972.96-.672 1.632-1.56 2.016-2.664h3.528c-.528 1.896-1.584 3.444-3.168 4.644-1.584 1.176-3.552 1.764-5.904 1.764-1.872 0-3.552-.42-5.04-1.26-1.464-.84-2.616-2.028-3.456-3.564-.84-1.56-1.26-3.36-1.26-5.4 0-2.04.408-3.828 1.224-5.364.816-1.536 1.956-2.712 3.42-3.528 1.488-.84 3.192-1.26 5.112-1.26 1.872 0 3.528.408 4.968 1.224 1.44.816 2.544 1.944 3.312 3.384.792 1.416 1.188 3.024 1.188 4.824zm-3.384-.684c0-1.248-.276-2.316-.828-3.204-.552-.912-1.308-1.596-2.268-2.052-.936-.48-1.98-.72-3.132-.72-1.656 0-3.072.528-4.248 1.584-1.152 1.056-1.812 2.52-1.98 4.392h12.456zm6.484 1.368c0-2.016.408-3.78 1.224-5.292.816-1.536 1.932-2.724 3.348-3.564 1.44-.84 3.036-1.26 4.788-1.26 1.728 0 3.228.372 4.5 1.116 1.272.744 2.22 1.68 2.844 2.808v-3.6h3.312V94h-3.312v-3.672c-.648 1.152-1.62 2.112-2.916 2.88-1.272.744-2.76 1.116-4.464 1.116-1.752 0-3.336-.432-4.752-1.296-1.416-.864-2.532-2.076-3.348-3.636-.816-1.56-1.224-3.336-1.224-5.328zm16.704.036c0-1.488-.3-2.784-.9-3.888-.6-1.104-1.416-1.944-2.448-2.52-1.008-.6-2.124-.9-3.348-.9-1.224 0-2.34.288-3.348.864-1.008.576-1.812 1.416-2.412 2.52-.6 1.104-.9 2.4-.9 3.888 0 1.512.3 2.832.9 3.96.6 1.104 1.404 1.956 2.412 2.556 1.008.576 2.124.864 3.348.864 1.224 0 2.34-.288 3.348-.864 1.032-.6 1.848-1.452 2.448-2.556.6-1.128.9-2.436.9-3.924zm15.832 10.224c-1.512 0-2.868-.252-4.068-.756-1.2-.528-2.148-1.248-2.844-2.16-.696-.936-1.08-2.004-1.152-3.204h3.384c.096.984.552 1.788 1.368 2.412.84.624 1.932.936 3.276.936 1.248 0 2.232-.276 2.952-.828.72-.552 1.08-1.248 1.08-2.088 0-.864-.384-1.5-1.152-1.908-.768-.432-1.956-.852-3.564-1.26-1.464-.384-2.664-.768-3.6-1.152-.912-.408-1.704-.996-2.376-1.764-.648-.792-.972-1.824-.972-3.096 0-1.008.3-1.932.9-2.772.6-.84 1.452-1.5 2.556-1.98 1.104-.504 2.364-.756 3.78-.756 2.184 0 3.948.552 5.292 1.656 1.344 1.104 2.064 2.616 2.16 4.536h-3.276c-.072-1.032-.492-1.86-1.26-2.484-.744-.624-1.752-.936-3.024-.936-1.176 0-2.112.252-2.808.756-.696.504-1.044 1.164-1.044 1.98 0 .648.204 1.188.612 1.62.432.408.96.744 1.584 1.008.648.24 1.536.516 2.664.828 1.416.384 2.568.768 3.456 1.152.888.36 1.644.912 2.268 1.656.648.744.984 1.716 1.008 2.916 0 1.08-.3 2.052-.9 2.916-.6.864-1.452 1.548-2.556 2.052-1.08.48-2.328.72-3.744.72zm29.825-10.944c0 .624-.036 1.284-.108 1.98h-15.768c.12 1.944.78 3.468 1.98 4.572 1.224 1.08 2.7 1.62 4.428 1.62 1.416 0 2.592-.324 3.528-.972.96-.672 1.632-1.56 2.016-2.664h3.528c-.528 1.896-1.584 3.444-3.168 4.644-1.584 1.176-3.552 1.764-5.904 1.764-1.872 0-3.552-.42-5.04-1.26-1.464-.84-2.616-2.028-3.456-3.564-.84-1.56-1.26-3.36-1.26-5.4 0-2.04.408-3.828 1.224-5.364.816-1.536 1.956-2.712 3.42-3.528 1.488-.84 3.192-1.26 5.112-1.26 1.872 0 3.528.408 4.968 1.224 1.44.816 2.544 1.944 3.312 3.384.792 1.416 1.188 3.024 1.188 4.824zm-3.384-.684c0-1.248-.276-2.316-.828-3.204-.552-.912-1.308-1.596-2.268-2.052-.936-.48-1.98-.72-3.132-.72-1.656 0-3.072.528-4.248 1.584-1.152 1.056-1.812 2.52-1.98 4.392h12.456zm6.484 1.368c0-2.016.408-3.78 1.224-5.292.816-1.536 1.932-2.724 3.348-3.564 1.44-.84 3.048-1.26 4.824-1.26 1.536 0 2.964.36 4.284 1.08 1.32.696 2.328 1.62 3.024 2.772V67.36h3.312V94h-3.312v-3.708c-.648 1.176-1.608 2.148-2.88 2.916-1.272.744-2.76 1.116-4.464 1.116-1.752 0-3.348-.432-4.788-1.296-1.416-.864-2.532-2.076-3.348-3.636-.816-1.56-1.224-3.336-1.224-5.328zm16.704.036c0-1.488-.3-2.784-.9-3.888-.6-1.104-1.416-1.944-2.448-2.52-1.008-.6-2.124-.9-3.348-.9-1.224 0-2.34.288-3.348.864-1.008.576-1.812 1.416-2.412 2.52-.6 1.104-.9 2.4-.9 3.888 0 1.512.3 2.832.9 3.96.6 1.104 1.404 1.956 2.412 2.556 1.008.576 2.124.864 3.348.864 1.224 0 2.34-.288 3.348-.864 1.032-.6 1.848-1.452 2.448-2.556.6-1.128.9-2.436.9-3.924z" fill="#fff"/></svg>