<svg width="573" height="163" viewBox="0 0 573 163" fill="none" xmlns="http://www.w3.org/2000/svg"><path fill="#202027" d="M413.614 0h159.238v162.803H413.614z"/><g clip-path="url(#clip0)"><path d="M493.009 29.2257c15.282 0 27.714 11.9626 27.714 26.6666 0 14.704-12.432 26.6667-27.714 26.6667-15.282 0-27.715-11.9627-27.715-26.6667 0-14.704 12.433-26.6666 27.715-26.6666zm0-5.3334c-18.367 0-33.258 14.3281-33.258 32 0 17.6721 14.891 32 33.258 32 18.366 0 33.257-14.3279 33.257-32 0-17.6719-14.891-32-33.257-32zm5.543 32l-12.472 12 4.232 4 16.554-16-16.554-16-4.232 4 12.472 12z" fill="#EAEAEA"/></g><path d="M482.119 127.719v16.608h-2.184v-12.384l-5.52 12.384h-1.536l-5.544-12.408v12.408h-2.184v-16.608h2.352l6.144 13.728 6.144-13.728h2.328zm9.44 16.824c-1.232 0-2.352-.28-3.36-.84-.992-.56-1.776-1.352-2.352-2.376-.56-1.04-.84-2.24-.84-3.6 0-1.344.288-2.528.864-3.552.592-1.04 1.392-1.832 2.4-2.376 1.008-.56 2.136-.84 3.384-.84 1.248 0 2.376.28 3.384.84 1.008.544 1.8 1.328 2.376 2.352.592 1.024.888 2.216.888 3.576 0 1.36-.304 2.56-.912 3.6-.592 1.024-1.4 1.816-2.424 2.376-1.024.56-2.16.84-3.408.84zm0-1.92c.784 0 1.52-.184 2.208-.552.688-.368 1.24-.92 1.656-1.656.432-.736.648-1.632.648-2.688 0-1.056-.208-1.952-.624-2.688-.416-.736-.96-1.28-1.632-1.632-.672-.368-1.4-.552-2.184-.552-.8 0-1.536.184-2.208.552-.656.352-1.184.896-1.584 1.632-.4.736-.6 1.632-.6 2.688 0 1.072.192 1.976.576 2.712.4.736.928 1.288 1.584 1.656.656.352 1.376.528 2.16.528zm11.8-9.312c.384-.752.928-1.336 1.632-1.752.72-.416 1.592-.624 2.616-.624v2.256h-.576c-2.448 0-3.672 1.328-3.672 3.984v7.152h-2.184v-13.152h2.184v2.136zm18.769 3.936c0 .416-.024.856-.072 1.32h-10.512c.08 1.296.52 2.312 1.32 3.048.816.72 1.8 1.08 2.952 1.08.944 0 1.728-.216 2.352-.648.64-.448 1.088-1.04 1.344-1.776h2.352c-.352 1.264-1.056 2.296-2.112 3.096-1.056.784-2.368 1.176-3.936 1.176-1.248 0-2.368-.28-3.36-.84-.976-.56-1.744-1.352-2.304-2.376-.56-1.04-.84-2.24-.84-3.6 0-1.36.272-2.552.816-3.576.544-1.024 1.304-1.808 2.28-2.352.992-.56 2.128-.84 3.408-.84 1.248 0 2.352.272 3.312.816.96.544 1.696 1.296 2.208 2.256.528.944.792 2.016.792 3.216zm-2.256-.456c0-.832-.184-1.544-.552-2.136-.368-.608-.872-1.064-1.512-1.368-.624-.32-1.32-.48-2.088-.48-1.104 0-2.048.352-2.832 1.056-.768.704-1.208 1.68-1.32 2.928h8.304z" fill="#fff"/><path fill="#202027" d="M206.843 0h159.238v162.803H206.843z"/><g clip-path="url(#clip1)"><path d="M312.736 52.3137l6.089 3.5786-31.743 18.6667-31.731-18.6667 6.085-3.5786 25.646 15.088 25.654-15.088zm-25.654 28.4187l-25.646-15.0881-6.085 3.5814 31.731 18.6666 31.743-18.6666-6.089-3.5787-25.654 15.0854zm31.743-38.1734l-31.743-18.6667-31.731 18.6667 31.731 18.6667 31.743-18.6667z" fill="#EAEAEA"/></g><path d="M252.741 140.607h-7.296l-1.344 3.72h-2.304l6.048-16.632h2.52l6.024 16.632h-2.304l-1.344-3.72zm-.624-1.776l-3.024-8.448-3.024 8.448h6.048zm9.092-12.264v17.76h-2.184v-17.76h2.184zm5.906 7.056c.448-.784 1.104-1.424 1.968-1.92.864-.496 1.848-.744 2.952-.744 1.184 0 2.248.28 3.192.84.944.56 1.688 1.352 2.232 2.376.544 1.008.816 2.184.816 3.528 0 1.328-.272 2.512-.816 3.552-.544 1.04-1.296 1.848-2.256 2.424-.944.576-2 .864-3.168.864-1.136 0-2.136-.248-3-.744-.848-.496-1.488-1.128-1.92-1.896v2.424h-2.184v-17.76h2.184v7.056zm8.928 4.08c0-.992-.2-1.856-.6-2.592-.4-.736-.944-1.296-1.632-1.68-.672-.384-1.416-.576-2.232-.576-.8 0-1.544.2-2.232.6-.672.384-1.216.952-1.632 1.704-.4.736-.6 1.592-.6 2.568 0 .992.2 1.864.6 2.616.416.736.96 1.304 1.632 1.704.688.384 1.432.576 2.232.576.816 0 1.56-.192 2.232-.576.688-.4 1.232-.968 1.632-1.704.4-.752.6-1.632.6-2.64zm16.771-6.528v13.152h-2.184v-1.944c-.416.672-1 1.2-1.752 1.584-.736.368-1.552.552-2.448.552-1.024 0-1.944-.208-2.76-.624-.816-.432-1.464-1.072-1.944-1.92-.464-.848-.696-1.88-.696-3.096v-7.704h2.16v7.416c0 1.296.328 2.296.984 3 .656.688 1.552 1.032 2.688 1.032 1.168 0 2.088-.36 2.76-1.08.672-.72 1.008-1.768 1.008-3.144v-7.224h2.184zm19.503-.24c1.024 0 1.936.216 2.736.648.8.416 1.432 1.048 1.896 1.896.464.848.696 1.88.696 3.096v7.752h-2.16v-7.44c0-1.312-.328-2.312-.984-3-.64-.704-1.512-1.056-2.616-1.056-1.136 0-2.04.368-2.712 1.104-.672.72-1.008 1.768-1.008 3.144v7.248h-2.16v-7.44c0-1.312-.328-2.312-.984-3-.64-.704-1.512-1.056-2.616-1.056-1.136 0-2.04.368-2.712 1.104-.672.72-1.008 1.768-1.008 3.144v7.248h-2.184v-13.152h2.184v1.896c.432-.688 1.008-1.216 1.728-1.584.736-.368 1.544-.552 2.424-.552 1.104 0 2.08.248 2.928.744.848.496 1.48 1.224 1.896 2.184.368-.928.976-1.648 1.824-2.16.848-.512 1.792-.768 2.832-.768zm13.567 13.608c-1.008 0-1.912-.168-2.712-.504-.8-.352-1.432-.832-1.896-1.44-.464-.624-.72-1.336-.768-2.136h2.256c.064.656.368 1.192.912 1.608.56.416 1.288.624 2.184.624.832 0 1.488-.184 1.968-.552.48-.368.72-.832.72-1.392 0-.576-.256-1-.768-1.272-.512-.288-1.304-.568-2.376-.84-.976-.256-1.776-.512-2.4-.768-.608-.272-1.136-.664-1.584-1.176-.432-.528-.648-1.216-.648-2.064 0-.672.2-1.288.6-1.848.4-.56.968-1 1.704-1.32.736-.336 1.576-.504 2.52-.504 1.456 0 2.632.368 3.528 1.104.896.736 1.376 1.744 1.44 3.024h-2.184c-.048-.688-.328-1.24-.84-1.656-.496-.416-1.168-.624-2.016-.624-.784 0-1.408.168-1.872.504-.464.336-.696.776-.696 1.32 0 .432.136.792.408 1.08.288.272.64.496 1.056.672.432.16 1.024.344 1.776.552.944.256 1.712.512 2.304.768.592.24 1.096.608 1.512 1.104.432.496.656 1.144.672 1.944 0 .72-.2 1.368-.6 1.944-.4.576-.968 1.032-1.704 1.368-.72.32-1.552.48-2.496.48z" fill="#fff"/><path fill="#202027" d="M.071777 0h159.238v162.803H.071777z"/><g clip-path="url(#clip2)"><path d="M89.1183 54.272c-2.8128 2.2513-21.2324 16.9998-25.497 20.4168l-7.2112-7.2112 20.5024-25.4114L89.1183 54.272zm14.1947-26.3821c-5.4943-5.4946-14.406-5.4946-19.9005 0-3.623 3.6256-3.9305 7.5988-4.1069 9.0079l14.9998 14.9998c1.2941-.1443 5.3529-.4519 9.0076-4.1069 5.498-5.4946 5.498-14.4062 0-19.9008zM77.0194 75.8572c-6.1282 0-8.9276 3.8155-12.8768 6.2968-2.7968 1.754-5.4438.8636-6.7165-.7112-.4626-.5643-1.7834-2.5963.4652-4.9251l-.3342-.3343-3.0106-2.917c-3.6685 3.786-3.0187 8.3101-.746 11.1148 2.6069 3.2192 7.8501 4.8448 12.8207 1.7246 4.2379-2.6604 6.1149-5.5828 10.3982-5.5828 2.7701 0 5.2941 1.2406 9.3182 7.4143l3.9063-2.5454c-3.7245-5.7219-7.401-9.5347-13.2245-9.5347z" fill="#EAEAEA"/></g><path d="M40.5507 135.951c0-1.632.368-3.096 1.104-4.392.736-1.312 1.736-2.336 3-3.072 1.28-.736 2.696-1.104 4.248-1.104 1.824 0 3.416.44 4.776 1.32 1.36.88 2.352 2.128 2.976 3.744h-2.616c-.464-1.008-1.136-1.784-2.016-2.328-.864-.544-1.904-.816-3.12-.816-1.168 0-2.216.272-3.144.816-.928.544-1.656 1.32-2.184 2.328-.528.992-.792 2.16-.792 3.504 0 1.328.264 2.496.792 3.504.528.992 1.256 1.76 2.184 2.304.928.544 1.976.816 3.144.816 1.216 0 2.256-.264 3.12-.792.88-.544 1.552-1.32 2.016-2.328h2.616c-.624 1.6-1.616 2.84-2.976 3.72-1.36.864-2.952 1.296-4.776 1.296-1.552 0-2.968-.36-4.248-1.08-1.264-.736-2.264-1.752-3-3.048-.736-1.296-1.104-2.76-1.104-4.392zm25.8831-5.016c.992 0 1.888.216 2.688.648.8.416 1.424 1.048 1.872 1.896.464.848.696 1.88.696 3.096v7.752h-2.16v-7.44c0-1.312-.328-2.312-.984-3-.656-.704-1.552-1.056-2.688-1.056-1.152 0-2.072.36-2.76 1.08-.672.72-1.008 1.768-1.008 3.144v7.272h-2.184v-17.76h2.184v6.48c.432-.672 1.024-1.192 1.776-1.56.768-.368 1.624-.552 2.568-.552zm8.0075 6.768c0-1.344.272-2.52.816-3.528.544-1.024 1.288-1.816 2.232-2.376.96-.56 2.024-.84 3.192-.84 1.152 0 2.152.248 3 .744.848.496 1.48 1.12 1.896 1.872v-2.4h2.208v13.152h-2.208v-2.448c-.432.768-1.08 1.408-1.944 1.92-.848.496-1.84.744-2.976.744-1.168 0-2.224-.288-3.168-.864-.944-.576-1.688-1.384-2.232-2.424-.544-1.04-.816-2.224-.816-3.552zm11.136.024c0-.992-.2-1.856-.6-2.592-.4-.736-.944-1.296-1.632-1.68-.672-.4-1.416-.6-2.232-.6-.816 0-1.56.192-2.232.576-.672.384-1.208.944-1.608 1.68-.4.736-.6 1.6-.6 2.592 0 1.008.2 1.888.6 2.64.4.736.936 1.304 1.608 1.704.672.384 1.416.576 2.232.576.816 0 1.56-.192 2.232-.576.688-.4 1.232-.968 1.632-1.704.4-.752.6-1.624.6-2.616zm8.0828-4.416c.384-.752.928-1.336 1.632-1.752.72-.416 1.592-.624 2.616-.624v2.256h-.576c-2.448 0-3.672 1.328-3.672 3.984v7.152h-2.184v-13.152h2.184v2.136zm9.4329-.336v7.752c0 .64.136 1.096.408 1.368.272.256.744.384 1.416.384h1.608v1.848h-1.968c-1.216 0-2.128-.28-2.736-.84-.608-.56-.912-1.48-.912-2.76v-7.752h-1.7038v-1.8h1.7038v-3.312h2.184v3.312h3.432v1.8h-3.432zm10.734 11.568c-1.008 0-1.912-.168-2.712-.504-.8-.352-1.432-.832-1.896-1.44-.464-.624-.72-1.336-.768-2.136h2.256c.064.656.368 1.192.912 1.608.56.416 1.288.624 2.184.624.832 0 1.488-.184 1.968-.552.48-.368.72-.832.72-1.392 0-.576-.256-1-.768-1.272-.512-.288-1.304-.568-2.376-.84-.976-.256-1.776-.512-2.4-.768-.608-.272-1.136-.664-1.584-1.176-.432-.528-.648-1.216-.648-2.064 0-.672.2-1.288.6-1.848.4-.56.968-1 1.704-1.32.736-.336 1.576-.504 2.52-.504 1.456 0 2.632.368 3.528 1.104.896.736 1.376 1.744 1.44 3.024h-2.184c-.048-.688-.328-1.24-.84-1.656-.496-.416-1.168-.624-2.016-.624-.784 0-1.408.168-1.872.504-.464.336-.696.776-.696 1.32 0 .432.136.792.408 1.08.288.272.64.496 1.056.672.432.16 1.024.344 1.776.552.944.256 1.712.512 2.304.768.592.24 1.096.608 1.512 1.104.432.496.656 1.144.672 1.944 0 .72-.2 1.368-.6 1.944-.4.576-.968 1.032-1.704 1.368-.72.32-1.552.48-2.496.48z" fill="#fff"/><defs><clipPath id="clip0"><path fill="#fff" transform="translate(459 23.8923)" d="M0 0h68v64H0z"/></clipPath><clipPath id="clip1"><path fill="#fff" transform="translate(253 23.8923)" d="M0 0h67v64H0z"/></clipPath><clipPath id="clip2"><path fill="#fff" transform="translate(47.6054 23.7668)" d="M0 0h64.1704v64.1704H0z"/></clipPath></defs></svg>