<svg width="1916" height="123" viewBox="0 0 1916 123" fill="none" xmlns="http://www.w3.org/2000/svg"><path fill="#202027" d="M-28 1h1944v126H-28z"/><path d="M344.765 60.552c0-1.664.36-3.144 1.08-4.44.72-1.312 1.72-2.328 3-3.048 1.296-.736 2.76-1.104 4.392-1.104 2 0 3.712.528 5.136 1.584s2.376 2.496 2.856 4.32h-4.512c-.336-.704-.816-1.24-1.44-1.608-.608-.368-1.304-.552-2.088-.552-1.264 0-2.288.44-3.072 1.32-.784.88-1.176 2.056-1.176 3.528s.392 2.648 1.176 3.528c.784.88 1.808 1.32 3.072 1.32.784 0 1.48-.184 2.088-.552.624-.368 1.104-.904 1.44-1.608h4.512c-.48 1.824-1.432 3.264-2.856 4.32-1.424 1.04-3.136 1.56-5.136 1.56-1.632 0-3.096-.36-4.392-1.08-1.28-.736-2.28-1.752-3-3.048-.72-1.296-1.08-2.776-1.08-4.44zm25.073 8.64c-1.312 0-2.496-.28-3.552-.84-1.04-.56-1.864-1.36-2.472-2.4-.592-1.04-.888-2.256-.888-3.648 0-1.376.304-2.584.912-3.624.608-1.056 1.44-1.864 2.496-2.424 1.056-.56 2.24-.84 3.552-.84 1.312 0 2.496.28 3.552.84 1.056.56 1.888 1.368 2.496 2.424.608 1.04.912 2.248.912 3.624s-.312 2.592-.936 3.648c-.608 1.04-1.448 1.84-2.52 2.4-1.056.56-2.24.84-3.552.84zm0-3.552c.784 0 1.448-.288 1.992-.864.56-.576.84-1.4.84-2.472s-.272-1.896-.816-2.472c-.528-.576-1.184-.864-1.968-.864-.8 0-1.464.288-1.992.864-.528.56-.792 1.384-.792 2.472 0 1.072.256 1.896.768 2.472.528.576 1.184.864 1.968.864zm17.345-10.176c1.568 0 2.816.512 3.744 1.536.944 1.008 1.416 2.4 1.416 4.176V69h-4.08v-7.272c0-.896-.232-1.592-.696-2.088-.464-.496-1.088-.744-1.872-.744s-1.408.248-1.872.744c-.464.496-.696 1.192-.696 2.088V69h-4.104V55.608h4.104v1.776c.416-.592.976-1.056 1.68-1.392.704-.352 1.496-.528 2.376-.528zm15.476 10.056V69h-2.088c-1.488 0-2.648-.36-3.48-1.08-.832-.736-1.248-1.928-1.248-3.576v-5.328h-1.632v-3.408h1.632v-3.264h4.104v3.264h2.688v3.408h-2.688v5.376c0 .4.096.688.288.864.192.176.512.264.96.264h1.464zm1.47-3.24c0-1.376.256-2.584.768-3.624.528-1.04 1.24-1.84 2.136-2.4.896-.56 1.896-.84 3-.84.944 0 1.768.192 2.472.576.72.384 1.272.888 1.656 1.512v-1.896h4.104V69h-4.104v-1.896c-.4.624-.96 1.128-1.68 1.512-.704.384-1.528.576-2.472.576-1.088 0-2.08-.28-2.976-.84-.896-.576-1.608-1.384-2.136-2.424-.512-1.056-.768-2.272-.768-3.648zm10.032.024c0-1.024-.288-1.832-.864-2.424-.56-.592-1.248-.888-2.064-.888-.816 0-1.512.296-2.088.888-.56.576-.84 1.376-.84 2.4s.28 1.84.84 2.448c.576.592 1.272.888 2.088.888.816 0 1.504-.296 2.064-.888.576-.592.864-1.4.864-2.424zm6.257 0c0-1.392.28-2.608.84-3.648.576-1.04 1.368-1.84 2.376-2.4 1.024-.56 2.192-.84 3.504-.84 1.68 0 3.08.44 4.2 1.32 1.136.88 1.88 2.12 2.232 3.72h-4.368c-.368-1.024-1.08-1.536-2.136-1.536-.752 0-1.352.296-1.8.888-.448.576-.672 1.408-.672 2.496s.224 1.928.672 2.52c.448.576 1.048.864 1.8.864 1.056 0 1.768-.512 2.136-1.536h4.368c-.352 1.568-1.096 2.8-2.232 3.696-1.136.896-2.536 1.344-4.2 1.344-1.312 0-2.48-.28-3.504-.84-1.008-.56-1.8-1.36-2.376-2.4-.56-1.04-.84-2.256-.84-3.648zm22.811 3.216V69h-2.088c-1.488 0-2.648-.36-3.48-1.08-.832-.736-1.248-1.928-1.248-3.576v-5.328h-1.632v-3.408h1.632v-3.264h4.104v3.264h2.688v3.408h-2.688v5.376c0 .4.096.688.288.864.192.176.512.264.96.264h1.464z" fill="#fff"/><g clip-path="url(#clip0)"><path d="M1633.67 49h-21.34c-.74 0-1.33.5436-1.33 1.2146v19.5717c0 .6701.59 1.2137 1.33 1.2137h11.49v-8.5195h-3.13v-3.3202h3.13v-2.4484c0-2.8417 1.89-4.389 4.66-4.389 1.32 0 2.46.0908 2.79.1311v2.97l-1.91.0009c-1.51 0-1.8.6554-1.8 1.6161v2.1203h3.59l-.47 3.3201h-3.12V71h6.12c.73 0 1.32-.5436 1.32-1.2146V50.2146c0-.671-.59-1.2146-1.33-1.2146z" fill="#fff"/></g><path d="M1479 52.557c-.88.392-1.83.656-2.83.775 1.02-.609 1.8-1.574 2.17-2.724-.95.564-2.01.974-3.13 1.195-.9-.957-2.18-1.555-3.59-1.555-3.18 0-5.52 2.966-4.8 6.045-4.09-.205-7.72-2.165-10.15-5.144-1.29 2.213-.67 5.108 1.52 6.574-.8-.026-1.56-.247-2.23-.616-.05 2.281 1.59 4.415 3.95 4.89-.69.188-1.45.232-2.22.084.63 1.956 2.44 3.379 4.6 3.419-2.07 1.623-4.68 2.348-7.29 2.04 2.18 1.397 4.77 2.212 7.55 2.212 9.14 0 14.3-7.721 13.99-14.646.96-.695 1.8-1.562 2.46-2.549zM1668.75 52.152v3.288h-6.87v3.552h5.14v3.192h-5.14V69h-4.1V52.152h10.97zm1.34 10.128c0-1.376.25-2.584.76-3.624.53-1.04 1.24-1.84 2.14-2.4.9-.56 1.9-.84 3-.84.94 0 1.77.192 2.47.576.72.384 1.27.888 1.66 1.512v-1.896h4.1V69h-4.1v-1.896c-.4.624-.96 1.128-1.68 1.512-.71.384-1.53.576-2.47.576-1.09 0-2.08-.28-2.98-.84-.9-.576-1.61-1.384-2.14-2.424-.51-1.056-.76-2.272-.76-3.648zm10.03.024c0-1.024-.29-1.832-.87-2.424-.56-.592-1.24-.888-2.06-.888-.82 0-1.51.296-2.09.888-.56.576-.84 1.376-.84 2.4s.28 1.84.84 2.448c.58.592 1.27.888 2.09.888.82 0 1.5-.296 2.06-.888.58-.592.87-1.4.87-2.424zm6.26 0c0-1.392.28-2.608.84-3.648.57-1.04 1.36-1.84 2.37-2.4 1.03-.56 2.19-.84 3.51-.84 1.68 0 3.08.44 4.2 1.32 1.13.88 1.88 2.12 2.23 3.72h-4.37c-.37-1.024-1.08-1.536-2.14-1.536-.75 0-1.35.296-1.8.888-.44.576-.67 1.408-.67 2.496s.23 1.928.67 2.52c.45.576 1.05.864 1.8.864 1.06 0 1.77-.512 2.14-1.536h4.37c-.35 1.568-1.1 2.8-2.23 3.696-1.14.896-2.54 1.344-4.2 1.344-1.32 0-2.48-.28-3.51-.84-1.01-.56-1.8-1.36-2.37-2.4-.56-1.04-.84-2.256-.84-3.648zm27.97-.216c0 .384-.03.784-.08 1.2h-9.28c.06.832.32 1.472.79 1.92.48.432 1.06.648 1.75.648 1.02 0 1.74-.432 2.14-1.296h4.36c-.22.88-.63 1.672-1.22 2.376-.58.704-1.3 1.256-2.18 1.656-.88.4-1.87.6-2.96.6-1.31 0-2.48-.28-3.5-.84-1.02-.56-1.82-1.36-2.4-2.4-.58-1.04-.86-2.256-.86-3.648 0-1.392.28-2.608.84-3.648.57-1.04 1.37-1.84 2.4-2.4 1.02-.56 2.2-.84 3.52-.84 1.3 0 2.45.272 3.46.816 1.01.544 1.79 1.32 2.35 2.328.58 1.008.87 2.184.87 3.528zm-4.2-1.08c0-.704-.24-1.264-.72-1.68-.48-.416-1.08-.624-1.8-.624-.69 0-1.28.2-1.76.6-.46.4-.75.968-.86 1.704h5.14zm10.47-3.504c.38-.624.93-1.128 1.65-1.512.72-.384 1.55-.576 2.47-.576 1.11 0 2.11.28 3 .84.9.56 1.6 1.36 2.12 2.4.52 1.04.79 2.248.79 3.624s-.27 2.592-.79 3.648c-.52 1.04-1.22 1.848-2.12 2.424-.89.56-1.89.84-3 .84-.94 0-1.76-.184-2.47-.552-.7-.384-1.25-.888-1.65-1.512V69h-4.11V51.24h4.11v6.264zm5.85 4.776c0-1.024-.29-1.824-.86-2.4-.56-.592-1.26-.888-2.09-.888-.82 0-1.51.296-2.09.888-.56.592-.84 1.4-.84 2.424s.28 1.832.84 2.424c.58.592 1.27.888 2.09.888.82 0 1.51-.296 2.09-.888.57-.608.86-1.424.86-2.448zm12.43 6.912c-1.32 0-2.5-.28-3.56-.84-1.04-.56-1.86-1.36-2.47-2.4-.59-1.04-.89-2.256-.89-3.648 0-1.376.31-2.584.92-3.624.6-1.056 1.44-1.864 2.49-2.424 1.06-.56 2.24-.84 3.55-.84 1.32 0 2.5.28 3.56.84 1.05.56 1.88 1.368 2.49 2.424.61 1.04.91 2.248.91 3.624s-.31 2.592-.93 3.648c-.61 1.04-1.45 1.84-2.52 2.4-1.06.56-2.24.84-3.55.84zm0-3.552c.78 0 1.44-.288 1.99-.864.56-.576.84-1.4.84-2.472s-.27-1.896-.82-2.472c-.53-.576-1.18-.864-1.97-.864-.8 0-1.46.288-1.99.864-.53.56-.79 1.384-.79 2.472 0 1.072.26 1.896.77 2.472.53.576 1.18.864 1.97.864zm15.28 3.552c-1.31 0-2.5-.28-3.55-.84-1.04-.56-1.87-1.36-2.48-2.4-.59-1.04-.88-2.256-.88-3.648 0-1.376.3-2.584.91-3.624.61-1.056 1.44-1.864 2.49-2.424 1.06-.56 2.24-.84 3.56-.84 1.31 0 2.49.28 3.55.84 1.05.56 1.89 1.368 2.49 2.424.61 1.04.92 2.248.92 3.624s-.32 2.592-.94 3.648c-.61 1.04-1.45 1.84-2.52 2.4-1.06.56-2.24.84-3.55.84zm0-3.552c.78 0 1.45-.288 1.99-.864.56-.576.84-1.4.84-2.472s-.27-1.896-.82-2.472c-.52-.576-1.18-.864-1.96-.864-.8 0-1.47.288-2 .864-.52.56-.79 1.384-.79 2.472 0 1.072.26 1.896.77 2.472.53.576 1.18.864 1.97.864zm17.37 3.36l-4.08-5.616V69h-4.11V51.24h4.11v9.816l4.05-5.448h5.07l-5.57 6.72 5.62 6.672h-5.09zM1508.31 52.152v3.288h-4.47V69h-4.1V55.44h-4.46v-3.288h13.03zm21.28 3.456L1525.97 69h-4.54l-2.11-8.688-2.19 8.688h-4.51l-3.65-13.392h4.11l1.89 9.576 2.26-9.576h4.34l2.28 9.528 1.88-9.528h3.86zm3.63-1.392c-.72 0-1.31-.208-1.78-.624-.44-.432-.67-.96-.67-1.584 0-.64.23-1.168.67-1.584.47-.432 1.06-.648 1.78-.648.7 0 1.28.216 1.73.648.46.416.69.944.69 1.584 0 .624-.23 1.152-.69 1.584-.45.416-1.03.624-1.73.624zm2.04 1.392V69h-4.1V55.608h4.1zm10.44 9.912V69h-2.09c-1.49 0-2.65-.36-3.48-1.08-.83-.736-1.25-1.928-1.25-3.576v-5.328h-1.63v-3.408h1.63v-3.264h4.11v3.264h2.68v3.408h-2.68v5.376c0 .4.09.688.28.864.2.176.52.264.96.264h1.47zm9.75 0V69h-2.09c-1.49 0-2.65-.36-3.48-1.08-.83-.736-1.25-1.928-1.25-3.576v-5.328H1547v-3.408h1.63v-3.264h4.11v3.264h2.68v3.408h-2.68v5.376c0 .4.09.688.28.864.2.176.52.264.96.264h1.47zm14.91-3.432c0 .384-.03.784-.07 1.2H1561c.06.832.33 1.472.79 1.92.48.432 1.06.648 1.75.648 1.03 0 1.74-.432 2.14-1.296h4.37c-.23.88-.64 1.672-1.23 2.376-.57.704-1.3 1.256-2.18 1.656-.88.4-1.87.6-2.95.6-1.32 0-2.48-.28-3.51-.84-1.02-.56-1.82-1.36-2.4-2.4-.57-1.04-.86-2.256-.86-3.648 0-1.392.28-2.608.84-3.648.57-1.04 1.37-1.84 2.4-2.4 1.02-.56 2.2-.84 3.53-.84 1.29 0 2.44.272 3.45.816 1.01.544 1.79 1.32 2.35 2.328.58 1.008.87 2.184.87 3.528zm-4.2-1.08c0-.704-.24-1.264-.72-1.68-.48-.416-1.08-.624-1.8-.624-.69 0-1.27.2-1.75.6-.47.4-.76.968-.87 1.704h5.14zm10.47-3.168c.48-.736 1.08-1.312 1.8-1.728.72-.432 1.52-.648 2.4-.648v4.344h-1.13c-1.02 0-1.79.224-2.3.672-.52.432-.77 1.2-.77 2.304V69h-4.11V55.608h4.11v2.232zM189.187 66.024h-6.288L181.891 69h-4.296l6.096-16.848h4.752L194.539 69h-4.344l-1.008-2.976zm-1.056-3.168l-2.088-6.168-2.064 6.168h4.152zm12.367-5.352c.384-.624.936-1.128 1.656-1.512.72-.384 1.544-.576 2.472-.576 1.104 0 2.104.28 3 .84.896.56 1.6 1.36 2.112 2.4.528 1.04.792 2.248.792 3.624s-.264 2.592-.792 3.648c-.512 1.04-1.216 1.848-2.112 2.424-.896.56-1.896.84-3 .84-.944 0-1.768-.184-2.472-.552-.704-.384-1.256-.888-1.656-1.512V69h-4.104V51.24h4.104v6.264zm5.856 4.776c0-1.024-.288-1.824-.864-2.4-.56-.592-1.256-.888-2.088-.888-.816 0-1.512.296-2.088.888-.56.592-.84 1.4-.84 2.424s.28 1.832.84 2.424c.576.592 1.272.888 2.088.888.816 0 1.512-.296 2.088-.888.576-.608.864-1.424.864-2.448zm12.425 6.912c-1.312 0-2.496-.28-3.552-.84-1.04-.56-1.864-1.36-2.472-2.4-.592-1.04-.888-2.256-.888-3.648 0-1.376.304-2.584.912-3.624.608-1.056 1.44-1.864 2.496-2.424 1.056-.56 2.24-.84 3.552-.84 1.312 0 2.496.28 3.552.84 1.056.56 1.888 1.368 2.496 2.424.608 1.04.912 2.248.912 3.624s-.312 2.592-.936 3.648c-.608 1.04-1.448 1.84-2.52 2.4-1.056.56-2.24.84-3.552.84zm0-3.552c.784 0 1.448-.288 1.992-.864.56-.576.84-1.4.84-2.472s-.272-1.896-.816-2.472c-.528-.576-1.184-.864-1.968-.864-.8 0-1.464.288-1.992.864-.528.56-.792 1.384-.792 2.472 0 1.072.256 1.896.768 2.472.528.576 1.184.864 1.968.864zm22.41-10.032V69h-4.104v-1.824c-.416.592-.984 1.072-1.704 1.44-.704.352-1.488.528-2.352.528-1.024 0-1.928-.224-2.712-.672-.784-.464-1.392-1.128-1.824-1.992-.432-.864-.648-1.88-.648-3.048v-7.824h4.08v7.272c0 .896.232 1.592.696 2.088.464.496 1.088.744 1.872.744.8 0 1.432-.248 1.896-.744.464-.496.696-1.192.696-2.088v-7.272h4.104zM251.6 65.52V69h-2.088c-1.488 0-2.648-.36-3.48-1.08-.832-.736-1.248-1.928-1.248-3.576v-5.328h-1.632v-3.408h1.632v-3.264h4.104v3.264h2.688v3.408h-2.688v5.376c0 .4.096.688.288.864.192.176.512.264.96.264h1.464zm11.404-13.368v10.08c0 1.008.248 1.784.744 2.328.496.544 1.224.816 2.184.816.96 0 1.696-.272 2.208-.816.512-.544.768-1.32.768-2.328v-10.08h4.104v10.056c0 1.504-.32 2.776-.96 3.816-.64 1.04-1.504 1.824-2.592 2.352-1.072.528-2.272.792-3.6.792-1.328 0-2.52-.256-3.576-.768-1.04-.528-1.864-1.312-2.472-2.352-.608-1.056-.912-2.336-.912-3.84V52.152h4.104zm18.338 17.04c-1.168 0-2.208-.2-3.12-.6-.912-.4-1.632-.944-2.16-1.632-.528-.704-.824-1.488-.888-2.352h4.056c.048.464.264.84.648 1.128.384.288.856.432 1.416.432.512 0 .904-.096 1.176-.288.288-.208.432-.472.432-.792 0-.384-.2-.664-.6-.84-.4-.192-1.048-.4-1.944-.624-.96-.224-1.76-.456-2.4-.696-.64-.256-1.192-.648-1.656-1.176-.464-.544-.696-1.272-.696-2.184 0-.768.208-1.464.624-2.088.432-.64 1.056-1.144 1.872-1.512.832-.368 1.816-.552 2.952-.552 1.68 0 3 .416 3.96 1.248.976.832 1.536 1.936 1.68 3.312h-3.792c-.064-.464-.272-.832-.624-1.104-.336-.272-.784-.408-1.344-.408-.48 0-.848.096-1.104.288-.256.176-.384.424-.384.744 0 .384.2.672.6.864.416.192 1.056.384 1.92.576.992.256 1.8.512 2.424.768.624.24 1.168.64 1.632 1.2.48.544.728 1.28.744 2.208 0 .784-.224 1.488-.672 2.112-.432.608-1.064 1.088-1.896 1.44-.816.352-1.768.528-2.856.528z" fill="#fff"/><defs><clipPath id="clip0"><path fill="#fff" transform="translate(1617 49)" d="M0 0h24v22H0z"/></clipPath></defs></svg>