<svg width="579" height="119" viewBox="0 0 579 119" fill="none" xmlns="http://www.w3.org/2000/svg"><rect x="1" y="60" width="577" height="58" rx="9" stroke="#1762A7" stroke-width="2"/><path d="M15.504 26h-2.736L4.536 13.544V26H1.8V9.296h2.736l8.232 12.432V9.296h2.736V26zm2.6809-6.672c0-1.328.272-2.504.816-3.528.56-1.024 1.312-1.816 2.256-2.376.96-.576 2.016-.864 3.168-.864 1.04 0 1.944.208 2.712.624.784.4 1.408.904 1.872 1.512v-1.92h2.76V26h-2.76v-1.968c-.464.624-1.096 1.144-1.896 1.56-.8.416-1.712.624-2.736.624-1.136 0-2.176-.288-3.12-.864-.944-.592-1.696-1.408-2.256-2.448-.544-1.056-.816-2.248-.816-3.576zm10.824.048c0-.912-.192-1.704-.576-2.376-.368-.672-.856-1.184-1.464-1.536-.608-.352-1.264-.528-1.968-.528s-1.36.176-1.968.528c-.608.336-1.104.84-1.488 1.512-.368.656-.552 1.44-.552 2.352 0 .912.184 1.712.552 2.4.384.688.88 1.216 1.488 1.584.624.352 1.28.528 1.968.528.704 0 1.36-.176 1.968-.528.608-.352 1.096-.864 1.464-1.536.384-.688.576-1.488.576-2.4zm22.3616-6.816c1.04 0 1.968.216 2.784.648.832.432 1.48 1.072 1.944 1.92.48.848.72 1.872.72 3.072V26h-2.712v-7.392c0-1.184-.296-2.088-.888-2.712-.592-.64-1.4-.96-2.424-.96s-1.84.32-2.448.96c-.592.624-.888 1.528-.888 2.712V26h-2.712v-7.392c0-1.184-.296-2.088-.888-2.712-.592-.64-1.4-.96-2.424-.96s-1.84.32-2.448.96c-.592.624-.888 1.528-.888 2.712V26h-2.736V12.776h2.736v1.512c.448-.544 1.016-.968 1.704-1.272.688-.304 1.424-.456 2.208-.456 1.056 0 2 .224 2.832.672.832.448 1.472 1.096 1.92 1.944.4-.8 1.024-1.432 1.872-1.896.848-.48 1.76-.72 2.736-.72zM72.42 19.064c0 .496-.032.944-.096 1.344H62.22c.08 1.056.472 1.904 1.176 2.544.704.64 1.568.96 2.592.96 1.472 0 2.512-.616 3.12-1.848h2.952c-.4 1.216-1.128 2.216-2.184 3-1.04.768-2.336 1.152-3.888 1.152-1.264 0-2.4-.28-3.408-.84-.992-.576-1.776-1.376-2.352-2.4-.56-1.04-.84-2.24-.84-3.6 0-1.36.272-2.552.816-3.576.56-1.04 1.336-1.84 2.328-2.4 1.008-.56 2.16-.84 3.456-.84 1.248 0 2.36.272 3.336.816.976.544 1.736 1.312 2.28 2.304.544.976.816 2.104.816 3.384zm-2.856-.864c-.016-1.008-.376-1.816-1.08-2.424-.704-.608-1.576-.912-2.616-.912-.944 0-1.752.304-2.424.912-.672.592-1.072 1.4-1.2 2.424h7.32zm6.6525 7.968c-.496 0-.912-.168-1.248-.504-.336-.336-.504-.752-.504-1.248s.168-.912.504-1.248c.336-.336.752-.504 1.248-.504.48 0 .888.168 1.224.504.336.336.504.752.504 1.248s-.168.912-.504 1.248c-.336.336-.744.504-1.224.504zm0-10.08c-.496 0-.912-.168-1.248-.504-.336-.336-.504-.752-.504-1.248s.168-.912.504-1.248c.336-.336.752-.504 1.248-.504.48 0 .888.168 1.224.504.336.336.504.752.504 1.248s-.168.912-.504 1.248c-.336.336-.744.504-1.224.504z" fill="#fff"/></svg>