<svg id="Layer_1" data-name="Layer 1" xmlns="http://www.w3.org/2000/svg" viewBox="0 0 470 470"><defs><style>.cls-1{fill:#fff;}.cls-2{fill:#f05454;}.cls-3{fill:#e6e6e6;}.cls-4{font-size:221.93px;fill:#19c3da;font-family:KristenITC-Regular, Kristen ITC;}</style></defs><path class="cls-1" d="M250,465A215,215,0,0,1,98,98,215,215,0,0,1,402,402,213.59,213.59,0,0,1,250,465Z" transform="translate(-15 -15)"/><path class="cls-2" d="M250,45a204.3,204.3,0,1,1-79.79,16.1A203.79,203.79,0,0,1,250,45m0-20C125.74,25,25,125.74,25,250S125.74,475,250,475,475,374.26,475,250,374.26,25,250,25Z" transform="translate(-15 -15)"/><path class="cls-3" d="M250,30a220.07,220.07,0,0,1,85.63,422.72A220.06,220.06,0,0,1,164.37,47.28,218.55,218.55,0,0,1,250,30m0-15C120.21,15,15,120.21,15,250S120.21,485,250,485,485,379.79,485,250,379.79,15,250,15Z" transform="translate(-15 -15)"/><text class="cls-4" transform="translate(73.65 352.93) rotate(-18.12)">akp</text></svg>