<svg width="716" height="91" viewBox="0 0 716 91" fill="none" xmlns="http://www.w3.org/2000/svg"><path d="M21.168 28.816c5.472 0 10.2 1.032 14.184 3.096 4.032 2.016 7.104 4.92 9.216 8.712 2.16 3.792 3.24 8.256 3.24 13.392 0 5.136-1.08 9.6-3.24 13.392-2.112 3.744-5.184 6.624-9.216 8.64C31.368 78.016 26.64 79 21.168 79H5.544V28.816h15.624zm0 44.784c6.48 0 11.424-1.704 14.832-5.112 3.408-3.456 5.112-8.28 5.112-14.472 0-6.24-1.728-11.112-5.184-14.616-3.408-3.504-8.328-5.256-14.76-5.256h-9.072V73.6h9.072zm38.6663-40.464c-1.248 0-2.304-.432-3.168-1.296-.864-.864-1.296-1.92-1.296-3.168 0-1.248.432-2.304 1.296-3.168.864-.864 1.92-1.296 3.168-1.296 1.2 0 2.208.432 3.024 1.296.864.864 1.296 1.92 1.296 3.168 0 1.248-.432 2.304-1.296 3.168-.816.864-1.824 1.296-3.024 1.296zm3.168 6.408V79h-6.552V39.544h6.552zM88.137 79.648c-3.024 0-5.736-.504-8.136-1.512-2.4-1.056-4.296-2.496-5.688-4.32-1.392-1.872-2.16-4.008-2.304-6.408h6.768c.192 1.968 1.104 3.576 2.736 4.824 1.68 1.248 3.864 1.872 6.552 1.872 2.496 0 4.464-.552 5.904-1.656 1.44-1.104 2.16-2.496 2.16-4.176 0-1.728-.768-3-2.304-3.816-1.536-.864-3.912-1.704-7.128-2.52-2.928-.768-5.328-1.536-7.2-2.304-1.824-.816-3.408-1.992-4.752-3.528-1.296-1.584-1.944-3.648-1.944-6.192 0-2.016.6-3.864 1.8-5.544 1.2-1.68 2.904-3 5.112-3.96 2.208-1.008 4.728-1.512 7.56-1.512 4.368 0 7.896 1.104 10.584 3.312 2.688 2.208 4.128 5.232 4.32 9.072h-6.552c-.144-2.064-.984-3.72-2.52-4.968-1.488-1.248-3.504-1.872-6.048-1.872-2.352 0-4.224.504-5.616 1.512-1.392 1.008-2.088 2.328-2.088 3.96 0 1.296.408 2.376 1.224 3.24.864.816 1.92 1.488 3.168 2.016 1.296.48 3.072 1.032 5.328 1.656 2.832.768 5.136 1.536 6.912 2.304 1.776.72 3.288 1.824 4.536 3.312 1.296 1.488 1.968 3.432 2.016 5.832 0 2.16-.6 4.104-1.8 5.832-1.2 1.728-2.904 3.096-5.112 4.104-2.16.96-4.656 1.44-7.488 1.44zM109.338 59.2c0-4.08.816-7.632 2.448-10.656 1.632-3.072 3.888-5.448 6.768-7.128 2.928-1.68 6.264-2.52 10.008-2.52 4.848 0 8.832 1.176 11.952 3.528 3.168 2.352 5.256 5.616 6.264 9.792h-7.056c-.672-2.4-1.992-4.296-3.96-5.688-1.92-1.392-4.32-2.088-7.2-2.088-3.744 0-6.768 1.296-9.072 3.888-2.304 2.544-3.456 6.168-3.456 10.872 0 4.752 1.152 8.424 3.456 11.016 2.304 2.592 5.328 3.888 9.072 3.888 2.88 0 5.28-.672 7.2-2.016 1.92-1.344 3.24-3.264 3.96-5.76h7.056c-1.056 4.032-3.168 7.272-6.336 9.72-3.168 2.4-7.128 3.6-11.88 3.6-3.744 0-7.08-.84-10.008-2.52-2.88-1.68-5.136-4.056-6.768-7.128-1.632-3.072-2.448-6.672-2.448-10.8zm63.391 20.448c-3.696 0-7.056-.84-10.08-2.52-2.976-1.68-5.328-4.056-7.056-7.128-1.68-3.12-2.52-6.72-2.52-10.8 0-4.032.864-7.584 2.592-10.656 1.776-3.12 4.176-5.496 7.2-7.128 3.024-1.68 6.408-2.52 10.152-2.52 3.744 0 7.128.84 10.152 2.52 3.024 1.632 5.4 3.984 7.128 7.056 1.776 3.072 2.664 6.648 2.664 10.728s-.912 7.68-2.736 10.8c-1.776 3.072-4.2 5.448-7.272 7.128-3.072 1.68-6.48 2.52-10.224 2.52zm0-5.76c2.352 0 4.56-.552 6.624-1.656 2.064-1.104 3.72-2.76 4.968-4.968 1.296-2.208 1.944-4.896 1.944-8.064s-.624-5.856-1.872-8.064c-1.248-2.208-2.88-3.84-4.896-4.896-2.016-1.104-4.2-1.656-6.552-1.656-2.4 0-4.608.552-6.624 1.656-1.968 1.056-3.552 2.688-4.752 4.896-1.2 2.208-1.8 4.896-1.8 8.064 0 3.216.576 5.928 1.728 8.136 1.2 2.208 2.784 3.864 4.752 4.968 1.968 1.056 4.128 1.584 6.48 1.584zm43.534-.936l12.24-33.408h6.984L220.007 79h-7.632l-15.48-39.456h7.056l12.312 33.408zm61.672-15.192c0 1.248-.072 2.568-.216 3.96h-31.536c.24 3.888 1.56 6.936 3.96 9.144 2.448 2.16 5.4 3.24 8.856 3.24 2.832 0 5.184-.648 7.056-1.944 1.92-1.344 3.264-3.12 4.032-5.328h7.056c-1.056 3.792-3.168 6.888-6.336 9.288-3.168 2.352-7.104 3.528-11.808 3.528-3.744 0-7.104-.84-10.08-2.52-2.928-1.68-5.232-4.056-6.912-7.128-1.68-3.12-2.52-6.72-2.52-10.8 0-4.08.816-7.656 2.448-10.728 1.632-3.072 3.912-5.424 6.84-7.056 2.976-1.68 6.384-2.52 10.224-2.52 3.744 0 7.056.816 9.936 2.448 2.88 1.632 5.088 3.888 6.624 6.768 1.584 2.832 2.376 6.048 2.376 9.648zm-6.768-1.368c0-2.496-.552-4.632-1.656-6.408-1.104-1.824-2.616-3.192-4.536-4.104-1.872-.96-3.96-1.44-6.264-1.44-3.312 0-6.144 1.056-8.496 3.168-2.304 2.112-3.624 5.04-3.96 8.784h24.912zm21.968-10.44c1.152-2.256 2.784-4.008 4.896-5.256 2.16-1.248 4.776-1.872 7.848-1.872v6.768h-1.728c-7.344 0-11.016 3.984-11.016 11.952V79h-6.552V39.544h6.552v6.408zm58.727-7.128c4.8 0 8.688 1.464 11.664 4.392 2.976 2.88 4.464 7.056 4.464 12.528V79h-6.48V56.68c0-3.936-.984-6.936-2.952-9-1.968-2.112-4.656-3.168-8.064-3.168-3.456 0-6.216 1.08-8.28 3.24-2.016 2.16-3.024 5.304-3.024 9.432V79h-6.552V39.544h6.552v5.616c1.296-2.016 3.048-3.576 5.256-4.68 2.256-1.104 4.728-1.656 7.416-1.656zm62.83 18.936c0 1.248-.072 2.568-.216 3.96H382.94c.24 3.888 1.56 6.936 3.96 9.144 2.448 2.16 5.4 3.24 8.856 3.24 2.832 0 5.184-.648 7.056-1.944 1.92-1.344 3.264-3.12 4.032-5.328h7.056c-1.056 3.792-3.168 6.888-6.336 9.288-3.168 2.352-7.104 3.528-11.808 3.528-3.744 0-7.104-.84-10.08-2.52-2.928-1.68-5.232-4.056-6.912-7.128-1.68-3.12-2.52-6.72-2.52-10.8 0-4.08.816-7.656 2.448-10.728 1.632-3.072 3.912-5.424 6.84-7.056 2.976-1.68 6.384-2.52 10.224-2.52 3.744 0 7.056.816 9.936 2.448 2.88 1.632 5.088 3.888 6.624 6.768 1.584 2.832 2.376 6.048 2.376 9.648zm-6.768-1.368c0-2.496-.552-4.632-1.656-6.408-1.104-1.824-2.616-3.192-4.536-4.104-1.872-.96-3.96-1.44-6.264-1.44-3.312 0-6.144 1.056-8.496 3.168-2.304 2.112-3.624 5.04-3.96 8.784h24.912zm67.977-16.848L463.589 79h-6.768l-9.504-31.32L437.813 79h-6.768l-12.384-39.456h6.696l9.072 33.12 9.792-33.12h6.696l9.576 33.192 8.928-33.192h6.48zm73.146-.72c3.072 0 5.808.648 8.208 1.944 2.4 1.248 4.296 3.144 5.688 5.688 1.392 2.544 2.088 5.64 2.088 9.288V79h-6.48V56.68c0-3.936-.984-6.936-2.952-9-1.92-2.112-4.536-3.168-7.848-3.168-3.408 0-6.12 1.104-8.136 3.312-2.016 2.16-3.024 5.304-3.024 9.432V79h-6.48V56.68c0-3.936-.984-6.936-2.952-9-1.92-2.112-4.536-3.168-7.848-3.168-3.408 0-6.12 1.104-8.136 3.312-2.016 2.16-3.024 5.304-3.024 9.432V79h-6.552V39.544h6.552v5.688c1.296-2.064 3.024-3.648 5.184-4.752 2.208-1.104 4.632-1.656 7.272-1.656 3.312 0 6.24.744 8.784 2.232 2.544 1.488 4.44 3.672 5.688 6.552 1.104-2.784 2.928-4.944 5.472-6.48 2.544-1.536 5.376-2.304 8.496-2.304zm61.723.72V79h-6.552v-5.832c-1.248 2.016-3 3.6-5.256 4.752-2.208 1.104-4.656 1.656-7.344 1.656-3.072 0-5.832-.624-8.28-1.872-2.448-1.296-4.392-3.216-5.832-5.76-1.392-2.544-2.088-5.64-2.088-9.288V39.544h6.48v22.248c0 3.888.984 6.888 2.952 9 1.968 2.064 4.656 3.096 8.064 3.096 3.504 0 6.264-1.08 8.28-3.24 2.016-2.16 3.024-5.304 3.024-9.432V39.544h6.552zm25.031 40.104c-3.024 0-5.736-.504-8.136-1.512-2.4-1.056-4.296-2.496-5.688-4.32-1.392-1.872-2.16-4.008-2.304-6.408h6.768c.192 1.968 1.104 3.576 2.736 4.824 1.68 1.248 3.864 1.872 6.552 1.872 2.496 0 4.464-.552 5.904-1.656 1.44-1.104 2.16-2.496 2.16-4.176 0-1.728-.768-3-2.304-3.816-1.536-.864-3.912-1.704-7.128-2.52-2.928-.768-5.328-1.536-7.2-2.304-1.824-.816-3.408-1.992-4.752-3.528-1.296-1.584-1.944-3.648-1.944-6.192 0-2.016.6-3.864 1.8-5.544 1.2-1.68 2.904-3 5.112-3.96 2.208-1.008 4.728-1.512 7.56-1.512 4.368 0 7.896 1.104 10.584 3.312 2.688 2.208 4.128 5.232 4.32 9.072h-6.552c-.144-2.064-.984-3.72-2.52-4.968-1.488-1.248-3.504-1.872-6.048-1.872-2.352 0-4.224.504-5.616 1.512-1.392 1.008-2.088 2.328-2.088 3.96 0 1.296.408 2.376 1.224 3.24.864.816 1.92 1.488 3.168 2.016 1.296.48 3.072 1.032 5.328 1.656 2.832.768 5.136 1.536 6.912 2.304 1.776.72 3.288 1.824 4.536 3.312 1.296 1.488 1.968 3.432 2.016 5.832 0 2.16-.6 4.104-1.8 5.832-1.2 1.728-2.904 3.096-5.112 4.104-2.16.96-4.656 1.44-7.488 1.44zm27.033-46.512c-1.248 0-2.304-.432-3.168-1.296-.864-.864-1.296-1.92-1.296-3.168 0-1.248.432-2.304 1.296-3.168.864-.864 1.92-1.296 3.168-1.296 1.2 0 2.208.432 3.024 1.296.864.864 1.296 1.92 1.296 3.168 0 1.248-.432 2.304-1.296 3.168-.816.864-1.824 1.296-3.024 1.296zm3.168 6.408V79h-6.552V39.544h6.552zm8.719 19.656c0-4.08.816-7.632 2.448-10.656 1.632-3.072 3.888-5.448 6.768-7.128 2.928-1.68 6.264-2.52 10.008-2.52 4.848 0 8.832 1.176 11.952 3.528 3.168 2.352 5.256 5.616 6.264 9.792h-7.056c-.672-2.4-1.992-4.296-3.96-5.688-1.92-1.392-4.32-2.088-7.2-2.088-3.744 0-6.768 1.296-9.072 3.888-2.304 2.544-3.456 6.168-3.456 10.872 0 4.752 1.152 8.424 3.456 11.016 2.304 2.592 5.328 3.888 9.072 3.888 2.88 0 5.28-.672 7.2-2.016 1.92-1.344 3.24-3.264 3.96-5.76h7.056c-1.056 4.032-3.168 7.272-6.336 9.72-3.168 2.4-7.128 3.6-11.88 3.6-3.744 0-7.08-.84-10.008-2.52-2.88-1.68-5.136-4.056-6.768-7.128-1.632-3.072-2.448-6.672-2.448-10.8z" fill="#fff"/></svg>