<svg width="579" height="89" viewBox="0 0 579 89" fill="none" xmlns="http://www.w3.org/2000/svg"><rect y="1" width="579" height="88" rx="10" fill="#1762A7"/><path d="M238.689 34.484v14.42c0 1.6053-.495 2.8933-1.484 3.864-.989.952-2.296 1.428-3.92 1.428-1.643 0-2.959-.4853-3.948-1.456-.989-.9893-1.484-2.3333-1.484-4.032h2.548c.019.952.261 1.7267.728 2.324.485.5973 1.204.896 2.156.896.952 0 1.661-.28 2.128-.84.467-.5787.7-1.3067.7-2.184v-14.42h2.576zm11.712 19.768c-1.438 0-2.744-.3267-3.92-.98-1.158-.6533-2.072-1.5773-2.744-2.772-.654-1.2133-.98-2.6133-.98-4.2 0-1.568.336-2.9493 1.008-4.144.69-1.2133 1.624-2.1373 2.8-2.772 1.176-.6533 2.492-.98 3.948-.98s2.772.3267 3.948.98c1.176.6347 2.1 1.5493 2.772 2.744.69 1.1947 1.036 2.5853 1.036 4.172 0 1.5867-.355 2.9867-1.064 4.2-.691 1.1947-1.634 2.1187-2.828 2.772-1.195.6533-2.52.98-3.976.98zm0-2.24c.914 0 1.773-.2147 2.576-.644.802-.4293 1.446-1.0733 1.932-1.932.504-.8587.756-1.904.756-3.136 0-1.232-.243-2.2773-.728-3.136-.486-.8587-1.12-1.4933-1.904-1.904-.784-.4293-1.634-.644-2.548-.644-.934 0-1.792.2147-2.576.644-.766.4107-1.382 1.0453-1.848 1.904-.467.8587-.7 1.904-.7 3.136 0 1.2507.224 2.3053.672 3.164.466.8587 1.082 1.5027 1.848 1.932.765.4107 1.605.616 2.52.616zm12.534-15.848c-.485 0-.896-.168-1.232-.504-.336-.336-.504-.7467-.504-1.232 0-.4853.168-.896.504-1.232.336-.336.747-.504 1.232-.504.467 0 .859.168 1.176.504.336.336.504.7467.504 1.232 0 .4853-.168.896-.504 1.232-.317.336-.709.504-1.176.504zm1.232 2.492V54h-2.548V38.656h2.548zm11.819-.28c1.866 0 3.378.5693 4.536 1.708 1.157 1.12 1.736 2.744 1.736 4.872V54h-2.52v-8.68c0-1.5307-.383-2.6973-1.148-3.5-.766-.8213-1.811-1.232-3.136-1.232-1.344 0-2.418.42-3.22 1.26-.784.84-1.176 2.0627-1.176 3.668V54h-2.548V38.656h2.548v2.184c.504-.784 1.185-1.3907 2.044-1.82.877-.4293 1.838-.644 2.884-.644zM309.229 54h-2.548l-10.248-15.54V54h-2.548V34.456h2.548l10.248 15.512V34.456h2.548V54zm11.035.252c-1.437 0-2.744-.3267-3.92-.98-1.157-.6533-2.072-1.5773-2.744-2.772-.653-1.2133-.98-2.6133-.98-4.2 0-1.568.336-2.9493 1.008-4.144.691-1.2133 1.624-2.1373 2.8-2.772 1.176-.6533 2.492-.98 3.948-.98s2.772.3267 3.948.98c1.176.6347 2.1 1.5493 2.772 2.744.691 1.1947 1.036 2.5853 1.036 4.172 0 1.5867-.355 2.9867-1.064 4.2-.691 1.1947-1.633 2.1187-2.828 2.772-1.195.6533-2.52.98-3.976.98zm0-2.24c.915 0 1.773-.2147 2.576-.644.803-.4293 1.447-1.0733 1.932-1.932.504-.8587.756-1.904.756-3.136 0-1.232-.243-2.2773-.728-3.136-.485-.8587-1.12-1.4933-1.904-1.904-.784-.4293-1.633-.644-2.548-.644-.933 0-1.792.2147-2.576.644-.765.4107-1.381 1.0453-1.848 1.904-.467.8587-.7 1.904-.7 3.136 0 1.2507.224 2.3053.672 3.164.467.8587 1.083 1.5027 1.848 1.932.765.4107 1.605.616 2.52.616zm31.658-13.356L347.134 54h-2.632l-3.696-12.18L337.11 54h-2.632l-4.816-15.344h2.604l3.528 12.88 3.808-12.88h2.604l3.724 12.908 3.472-12.908h2.52z" fill="#fff"/></svg>