<svg width="656" height="183" viewBox="0 0 656 183" fill="none" xmlns="http://www.w3.org/2000/svg"><path d="M48.2096 66.608v45.888c0 7.104-2.016 12.576-6.048 16.416-3.968 3.84-9.344 5.76-16.128 5.76-7.104 0-12.8-2.016-17.08802-6.048-4.288-4.032-6.432-9.76-6.432-17.184H18.8336c0 2.816.576 4.96 1.728 6.432 1.152 1.408 2.816 2.112 4.992 2.112 1.984 0 3.52-.64 4.608-1.92 1.088-1.28 1.632-3.136 1.632-5.568V66.608h16.416zm37.644 68.16c-5.248 0-9.984-1.12-14.208-3.36-4.16-2.24-7.456-5.44-9.888-9.6-2.368-4.16-3.552-9.024-3.552-14.592 0-5.504 1.216-10.336 3.648-14.496 2.432-4.224 5.76-7.456 9.984-9.696 4.224-2.24 8.96-3.36 14.208-3.36 5.248 0 9.984 1.12 14.2084 3.36 4.224 2.24 7.552 5.472 9.984 9.696 2.432 4.16 3.648 8.992 3.648 14.496s-1.248 10.368-3.744 14.592c-2.432 4.16-5.792 7.36-10.08 9.6-4.2244 2.24-8.9604 3.36-14.2084 3.36zm0-14.208c3.136 0 5.792-1.152 7.968-3.456 2.24-2.304 3.36-5.6 3.36-9.888s-1.088-7.584-3.264-9.888c-2.112-2.304-4.736-3.456-7.872-3.456-3.2 0-5.856 1.152-7.968 3.456-2.112 2.24-3.168 5.536-3.168 9.888 0 4.288 1.024 7.584 3.072 9.888 2.112 2.304 4.736 3.456 7.872 3.456zm44.9974-45.696c-2.88 0-5.248-.832-7.104-2.496-1.792-1.728-2.688-3.84-2.688-6.336 0-2.56.896-4.672 2.688-6.336 1.856-1.728 4.224-2.592 7.104-2.592 2.816 0 5.12.864 6.912 2.592 1.856 1.664 2.784 3.776 2.784 6.336 0 2.496-.928 4.608-2.784 6.336-1.792 1.664-4.096 2.496-6.912 2.496zm8.16 5.568V134h-16.416V80.432h16.416zm44.536-.576c6.272 0 11.264 2.048 14.976 6.144 3.776 4.032 5.664 9.6 5.664 16.704V134h-16.32v-29.088c0-3.584-.928-6.368-2.784-8.352-1.856-1.984-4.352-2.976-7.488-2.976s-5.632.992-7.488 2.976c-1.856 1.984-2.784 4.768-2.784 8.352V134h-16.416V80.432h16.416v7.104c1.664-2.368 3.904-4.224 6.72-5.568 2.816-1.408 5.984-2.112 9.504-2.112zm82.247 40.224V134h-8.352c-5.952 0-10.592-1.44-13.92-4.32-3.328-2.944-4.992-7.712-4.992-14.304V94.064h-6.528V80.432h6.528V67.376h16.416v13.056h10.752v13.632h-10.752v21.504c0 1.6.384 2.752 1.152 3.456.768.704 2.048 1.056 3.84 1.056h5.856zm42.072-40.224c6.144 0 11.072 2.048 14.784 6.144 3.712 4.032 5.568 9.6 5.568 16.704V134h-16.32v-29.088c0-3.584-.928-6.368-2.784-8.352-1.856-1.984-4.352-2.976-7.488-2.976s-5.632.992-7.488 2.976c-1.856 1.984-2.784 4.768-2.784 8.352V134h-16.416V62.96h16.416v24.672c1.664-2.368 3.936-4.256 6.816-5.664 2.88-1.408 6.112-2.112 9.696-2.112zm82.256 26.496c0 1.536-.096 3.136-.288 4.8h-37.152c.256 3.328 1.312 5.888 3.168 7.68 1.92 1.728 4.256 2.592 7.008 2.592 4.096 0 6.944-1.728 8.544-5.184h17.472c-.896 3.52-2.528 6.688-4.896 9.504-2.304 2.816-5.216 5.024-8.736 6.624-3.52 1.6-7.456 2.4-11.808 2.4-5.248 0-9.92-1.12-14.016-3.36-4.096-2.24-7.296-5.44-9.6-9.6-2.304-4.16-3.456-9.024-3.456-14.592 0-5.568 1.12-10.432 3.36-14.592 2.304-4.16 5.504-7.36 9.6-9.6 4.096-2.24 8.8-3.36 14.112-3.36 5.184 0 9.792 1.088 13.824 3.264 4.032 2.176 7.168 5.28 9.408 9.312 2.304 4.032 3.456 8.736 3.456 14.112zm-16.8-4.32c0-2.816-.96-5.056-2.88-6.72-1.92-1.664-4.32-2.496-7.2-2.496-2.752 0-5.088.8-7.008 2.4-1.856 1.6-3.008 3.872-3.456 6.816h20.544z" fill="#fff"/><path d="M454.898 83.248h-11.224V134h-20.862V83.248h-7.564V65.924h7.564v-1.952c0-8.3773 2.399-14.7213 7.198-19.032 4.798-4.392 11.834-6.588 21.106-6.588 1.545 0 2.684.0407 3.416.122v17.69c-3.986-.244-6.792.3253-8.418 1.708-1.627 1.3827-2.44 3.8633-2.44 7.442v.61h11.224v17.324zm77.025-17.324V134h-20.862v-9.272c-2.115 3.009-5.002 5.449-8.662 7.32-3.579 1.789-7.564 2.684-11.956 2.684-5.206 0-9.801-1.139-13.786-3.416-3.986-2.359-7.076-5.734-9.272-10.126-2.196-4.392-3.294-9.557-3.294-15.494V65.924h20.74v36.966c0 4.555 1.179 8.093 3.538 10.614 2.358 2.521 5.53 3.782 9.516 3.782 4.066 0 7.279-1.261 9.638-3.782 2.358-2.521 3.538-6.059 3.538-10.614V65.924h20.862zm56.465-.732c7.97 0 14.314 2.6027 19.032 7.808 4.798 5.124 7.198 12.2 7.198 21.228V134h-20.74V97.034c0-4.5547-1.18-8.0927-3.538-10.614-2.359-2.5213-5.531-3.782-9.516-3.782-3.986 0-7.158 1.2607-9.516 3.782-2.359 2.5213-3.538 6.0593-3.538 10.614V134h-20.862V65.924h20.862v9.028c2.114-3.0093 4.961-5.368 8.54-7.076 3.578-1.7893 7.604-2.684 12.078-2.684zm50.487 69.784c-3.66 0-6.67-1.057-9.028-3.172-2.278-2.196-3.416-4.88-3.416-8.052 0-3.253 1.138-5.978 3.416-8.174 2.358-2.196 5.368-3.294 9.028-3.294 3.578 0 6.506 1.098 8.784 3.294 2.358 2.196 3.538 4.921 3.538 8.174 0 3.172-1.18 5.856-3.538 8.052-2.278 2.115-5.206 3.172-8.784 3.172z" fill="#1762A7"/></svg>