<svg width="579" height="119" viewBox="0 0 579 119" fill="none" xmlns="http://www.w3.org/2000/svg"><rect x="1" y="60" width="577" height="58" rx="9" stroke="#1762A7" stroke-width="2"/><path d="M13.464 14.288c0 .848-.2 1.648-.6 2.4-.4.752-1.04 1.368-1.92 1.848-.88.464-2.008.696-3.384.696H4.536V26H1.8V9.32h5.76c1.28 0 2.36.224 3.24.672.896.432 1.56 1.024 1.992 1.776.448.752.672 1.592.672 2.52zM7.56 17c1.04 0 1.816-.232 2.328-.696.512-.48.768-1.152.768-2.016 0-1.824-1.032-2.736-3.096-2.736H4.536V17H7.56zm7.6014 2.328c0-1.328.272-2.504.816-3.528.56-1.024 1.312-1.816 2.256-2.376.96-.576 2.016-.864 3.168-.864 1.04 0 1.944.208 2.712.624.784.4 1.408.904 1.872 1.512v-1.92h2.76V26h-2.76v-1.968c-.464.624-1.096 1.144-1.896 1.56-.8.416-1.712.624-2.736.624-1.136 0-2.176-.288-3.12-.864-.944-.592-1.696-1.408-2.256-2.448-.544-1.056-.816-2.248-.816-3.576zm10.824.048c0-.912-.192-1.704-.576-2.376-.368-.672-.856-1.184-1.464-1.536-.608-.352-1.264-.528-1.968-.528s-1.36.176-1.968.528c-.608.336-1.104.84-1.488 1.512-.368.656-.552 1.44-.552 2.352 0 .912.184 1.712.552 2.4.384.688.88 1.216 1.488 1.584.624.352 1.28.528 1.968.528.704 0 1.36-.176 1.968-.528.608-.352 1.096-.864 1.464-1.536.384-.688.576-1.488.576-2.4zm11.1537 6.84c-1.04 0-1.976-.184-2.808-.552-.816-.384-1.464-.896-1.944-1.536-.48-.656-.736-1.384-.768-2.184h2.832c.048.56.312 1.032.792 1.416.496.368 1.112.552 1.848.552.768 0 1.36-.144 1.776-.432.432-.304.648-.688.648-1.152 0-.496-.24-.864-.72-1.104-.464-.24-1.208-.504-2.232-.792-.992-.272-1.8-.536-2.424-.792-.624-.256-1.168-.648-1.632-1.176-.448-.528-.672-1.224-.672-2.088 0-.704.208-1.344.624-1.92.416-.592 1.008-1.056 1.776-1.392.784-.336 1.68-.504 2.688-.504 1.504 0 2.712.384 3.624 1.152.928.752 1.424 1.784 1.488 3.096h-2.736c-.048-.592-.288-1.064-.72-1.416-.432-.352-1.016-.528-1.752-.528-.72 0-1.272.136-1.656.408-.384.272-.576.632-.576 1.08 0 .352.128.648.384.888s.568.432.936.576c.368.128.912.296 1.632.504.96.256 1.744.52 2.352.792.624.256 1.16.64 1.608 1.152.448.512.68 1.192.696 2.04 0 .752-.208 1.424-.624 2.016-.416.592-1.008 1.056-1.776 1.392-.752.336-1.64.504-2.664.504zm12.8203 0c-1.04 0-1.976-.184-2.808-.552-.816-.384-1.464-.896-1.944-1.536-.48-.656-.736-1.384-.768-2.184h2.832c.048.56.312 1.032.792 1.416.496.368 1.112.552 1.848.552.768 0 1.36-.144 1.776-.432.432-.304.648-.688.648-1.152 0-.496-.24-.864-.72-1.104-.464-.24-1.208-.504-2.232-.792-.992-.272-1.8-.536-2.424-.792-.624-.256-1.168-.648-1.632-1.176-.448-.528-.672-1.224-.672-2.088 0-.704.208-1.344.624-1.92.416-.592 1.008-1.056 1.776-1.392.784-.336 1.68-.504 2.688-.504 1.504 0 2.712.384 3.624 1.152.928.752 1.424 1.784 1.488 3.096h-2.736c-.048-.592-.288-1.064-.72-1.416-.432-.352-1.016-.528-1.752-.528-.72 0-1.272.136-1.656.408-.384.272-.576.632-.576 1.08 0 .352.128.648.384.888s.568.432.936.576c.368.128.912.296 1.632.504.96.256 1.744.52 2.352.792.624.256 1.16.64 1.608 1.152.448.512.68 1.192.696 2.04 0 .752-.208 1.424-.624 2.016-.416.592-1.008 1.056-1.776 1.392-.752.336-1.64.504-2.664.504zm25.7803-13.44L71.6357 26h-2.88l-2.664-9.768L63.4277 26h-2.88l-4.128-13.224h2.784l2.76 10.632 2.808-10.632h2.856l2.688 10.584 2.736-10.584h2.688zm7.7807 13.44c-1.248 0-2.376-.28-3.384-.84-1.008-.576-1.8-1.376-2.376-2.4-.576-1.04-.864-2.24-.864-3.6 0-1.344.296-2.536.888-3.576.592-1.04 1.4-1.84 2.424-2.4 1.024-.56 2.168-.84 3.432-.84 1.264 0 2.408.28 3.432.84 1.024.56 1.832 1.36 2.424 2.4.592 1.04.888 2.232.888 3.576 0 1.344-.304 2.536-.912 3.576-.608 1.04-1.44 1.848-2.496 2.424-1.04.56-2.192.84-3.456.84zm0-2.376c.704 0 1.36-.168 1.968-.504.624-.336 1.128-.84 1.512-1.512.384-.672.576-1.488.576-2.448s-.184-1.768-.552-2.424c-.368-.672-.856-1.176-1.464-1.512-.608-.336-1.264-.504-1.968-.504s-1.36.168-1.968.504c-.592.336-1.064.84-1.416 1.512-.352.656-.528 1.464-.528 2.424 0 1.424.36 2.528 1.08 3.312.736.768 1.656 1.152 2.76 1.152zm12.3047-9.144c.4-.672.928-1.192 1.584-1.56.672-.384 1.464-.576 2.376-.576v2.832h-.696c-1.072 0-1.888.272-2.448.816-.544.544-.816 1.488-.816 2.832V26h-2.736V12.776h2.736v1.92zm5.5629 4.632c0-1.328.272-2.504.816-3.528.56-1.024 1.312-1.816 2.256-2.376.96-.576 2.024-.864 3.192-.864.864 0 1.712.192 2.544.576.848.368 1.52.864 2.016 1.488V8.24h2.76V26h-2.76v-1.992c-.448.64-1.072 1.168-1.872 1.584-.784.416-1.688.624-2.712.624-1.152 0-2.208-.288-3.168-.864-.944-.592-1.696-1.408-2.256-2.448-.544-1.056-.816-2.248-.816-3.576zm10.824.048c0-.912-.192-1.704-.576-2.376-.368-.672-.856-1.184-1.464-1.536-.608-.352-1.264-.528-1.968-.528s-1.36.176-1.968.528c-.608.336-1.104.84-1.488 1.512-.368.656-.552 1.44-.552 2.352 0 .912.184 1.712.552 2.4.384.688.88 1.216 1.488 1.584.624.352 1.28.528 1.968.528.704 0 1.36-.176 1.968-.528.608-.352 1.096-.864 1.464-1.536.384-.688.576-1.488.576-2.4zm7.458 6.792c-.496 0-.912-.168-1.248-.504-.336-.336-.504-.752-.504-1.248s.168-.912.504-1.248c.336-.336.752-.504 1.248-.504.48 0 .888.168 1.224.504.336.336.504.752.504 1.248s-.168.912-.504 1.248c-.336.336-.744.504-1.224.504zm0-10.08c-.496 0-.912-.168-1.248-.504-.336-.336-.504-.752-.504-1.248s.168-.912.504-1.248c.336-.336.752-.504 1.248-.504.48 0 .888.168 1.224.504.336.336.504.752.504 1.248s-.168.912-.504 1.248c-.336.336-.744.504-1.224.504z" fill="#fff"/></svg>