<svg width="260" height="89" viewBox="0 0 260 89" fill="none" xmlns="http://www.w3.org/2000/svg"><rect y="1" width="260" height="88" rx="10" fill="#1762A7"/><path d="M79.1891 34.484v14.42c0 1.6053-.4947 2.8933-1.484 3.864-.9894.952-2.296 1.428-3.92 1.428-1.6427 0-2.9587-.4853-3.948-1.456-.9894-.9893-1.484-2.3333-1.484-4.032h2.548c.0186.952.2613 1.7267.728 2.324.4853.5973 1.204.896 2.156.896.952 0 1.6613-.28 2.128-.84.4666-.5787.7-1.3067.7-2.184v-14.42h2.576zm11.7116 19.768c-1.4373 0-2.744-.3267-3.92-.98-1.1573-.6533-2.072-1.5773-2.744-2.772-.6533-1.2133-.98-2.6133-.98-4.2 0-1.568.336-2.9493 1.008-4.144.6907-1.2133 1.624-2.1373 2.8-2.772 1.176-.6533 2.492-.98 3.948-.98s2.772.3267 3.948.98c1.176.6347 2.1 1.5493 2.772 2.744.6907 1.1947 1.036 2.5853 1.036 4.172 0 1.5867-.3546 2.9867-1.064 4.2-.6906 1.1947-1.6333 2.1187-2.828 2.772-1.1946.6533-2.52.98-3.976.98zm0-2.24c.9147 0 1.7734-.2147 2.576-.644.8027-.4293 1.4467-1.0733 1.932-1.932.504-.8587.756-1.904.756-3.136 0-1.232-.2426-2.2773-.728-3.136-.4853-.8587-1.12-1.4933-1.904-1.904-.784-.4293-1.6333-.644-2.548-.644-.9333 0-1.792.2147-2.576.644-.7653.4107-1.3813 1.0453-1.848 1.904-.4666.8587-.7 1.904-.7 3.136 0 1.2507.224 2.3053.672 3.164.4667.8587 1.0827 1.5027 1.848 1.932.7654.4107 1.6054.616 2.52.616zm12.5343-15.848c-.485 0-.896-.168-1.232-.504-.336-.336-.504-.7467-.504-1.232 0-.4853.168-.896.504-1.232.336-.336.747-.504 1.232-.504.467 0 .859.168 1.176.504.336.336.504.7467.504 1.232 0 .4853-.168.896-.504 1.232-.317.336-.709.504-1.176.504zm1.232 2.492V54h-2.548V38.656h2.548zm11.819-.28c1.866 0 3.378.5693 4.536 1.708 1.157 1.12 1.736 2.744 1.736 4.872V54h-2.52v-8.68c0-1.5307-.383-2.6973-1.148-3.5-.766-.8213-1.811-1.232-3.136-1.232-1.344 0-2.418.42-3.22 1.26-.784.84-1.176 2.0627-1.176 3.668V54h-2.548V38.656h2.548v2.184c.504-.784 1.185-1.3907 2.044-1.82.877-.4293 1.838-.644 2.884-.644zM149.729 54h-2.548l-10.248-15.54V54h-2.548V34.456h2.548l10.248 15.512V34.456h2.548V54zm11.035.252c-1.437 0-2.744-.3267-3.92-.98-1.157-.6533-2.072-1.5773-2.744-2.772-.653-1.2133-.98-2.6133-.98-4.2 0-1.568.336-2.9493 1.008-4.144.691-1.2133 1.624-2.1373 2.8-2.772 1.176-.6533 2.492-.98 3.948-.98s2.772.3267 3.948.98c1.176.6347 2.1 1.5493 2.772 2.744.691 1.1947 1.036 2.5853 1.036 4.172 0 1.5867-.355 2.9867-1.064 4.2-.691 1.1947-1.633 2.1187-2.828 2.772-1.195.6533-2.52.98-3.976.98zm0-2.24c.915 0 1.773-.2147 2.576-.644.803-.4293 1.447-1.0733 1.932-1.932.504-.8587.756-1.904.756-3.136 0-1.232-.243-2.2773-.728-3.136-.485-.8587-1.12-1.4933-1.904-1.904-.784-.4293-1.633-.644-2.548-.644-.933 0-1.792.2147-2.576.644-.765.4107-1.381 1.0453-1.848 1.904-.467.8587-.7 1.904-.7 3.136 0 1.2507.224 2.3053.672 3.164.467.8587 1.083 1.5027 1.848 1.932.765.4107 1.605.616 2.52.616zm31.658-13.356L187.634 54h-2.632l-3.696-12.18L177.61 54h-2.632l-4.816-15.344h2.604l3.528 12.88 3.808-12.88h2.604l3.724 12.908 3.472-12.908h2.52z" fill="#fff"/></svg>