<svg width="223" height="60" viewBox="0 0 223 60" fill="none" xmlns="http://www.w3.org/2000/svg"><path d="M8.94 41.21c-1.38 0-2.62-.24-3.72-.72-1.08-.5-1.93-1.18-2.55-2.04-.62-.88-.94-1.89-.96-3.03h2.91c.1.98.5 1.81 1.2 2.49.72.66 1.76.99 3.12.99 1.3 0 2.32-.32 3.06-.96.76-.66 1.14-1.5 1.14-2.52 0-.8-.22-1.45-.66-1.95-.44-.5-.99-.88-1.65-1.14-.66-.26-1.55-.54-2.67-.84-1.38-.36-2.49-.72-3.33-1.08-.82-.36-1.53-.92-2.13-1.68-.58-.78-.87-1.82-.87-3.12 0-1.14.29-2.15.87-3.03.58-.88 1.39-1.56 2.43-2.04 1.06-.48 2.27-.72 3.63-.72 1.96 0 3.56.49 4.8 1.47 1.26.98 1.97 2.28 2.13 3.9h-3c-.1-.8-.52-1.5-1.26-2.1-.74-.62-1.72-.93-2.94-.93-1.14 0-2.07.3-2.79.9-.72.58-1.08 1.4-1.08 2.46 0 .76.21 1.38.63 1.86.44.48.97.85 1.59 1.11.64.24 1.53.52 2.67.84 1.38.38 2.49.76 3.33 1.14.84.36 1.56.93 2.16 1.71.6.76.9 1.8.9 3.12 0 1.02-.27 1.98-.81 2.88-.54.9-1.34 1.63-2.4 2.19-1.06.56-2.31.84-3.75.84zm18.1474.06c-1.54 0-2.94-.35-4.2-1.05-1.24-.7-2.22-1.69-2.94-2.97-.7-1.3-1.05-2.8-1.05-4.5 0-1.68.36-3.16 1.08-4.44.74-1.3 1.74-2.29 3-2.97 1.26-.7 2.67-1.05 4.23-1.05 1.56 0 2.97.35 4.23 1.05 1.26.68 2.25 1.66 2.97 2.94.74 1.28 1.11 2.77 1.11 4.47 0 1.7-.38 3.2-1.14 4.5-.74 1.28-1.75 2.27-3.03 2.97-1.28.7-2.7 1.05-4.26 1.05zm0-2.4c.98 0 1.9-.23 2.76-.69.86-.46 1.55-1.15 2.07-2.07.54-.92.81-2.04.81-3.36 0-1.32-.26-2.44-.78-3.36-.52-.92-1.2-1.6-2.04-2.04-.84-.46-1.75-.69-2.73-.69-1 0-1.92.23-2.76.69-.82.44-1.48 1.12-1.98 2.04-.5.92-.75 2.04-.75 3.36 0 1.34.24 2.47.72 3.39.5.92 1.16 1.61 1.98 2.07.82.44 1.72.66 2.7.66zm26.5995-14.31V41h-2.73v-2.43c-.52.84-1.25 1.5-2.19 1.98-.92.46-1.94.69-3.06.69-1.28 0-2.43-.26-3.45-.78-1.02-.54-1.83-1.34-2.43-2.4-.58-1.06-.87-2.35-.87-3.87v-9.63h2.7v9.27c0 1.62.41 2.87 1.23 3.75.82.86 1.94 1.29 3.36 1.29 1.46 0 2.61-.45 3.45-1.35.84-.9 1.26-2.21 1.26-3.93v-9.03h2.73zm12.6194-.3c2 0 3.62.61 4.86 1.83 1.24 1.2 1.86 2.94 1.86 5.22V41h-2.7v-9.3c0-1.64-.41-2.89-1.23-3.75-.82-.88-1.94-1.32-3.36-1.32-1.44 0-2.59.45-3.45 1.35-.84.9-1.26 2.21-1.26 3.93V41h-2.73V24.56h2.73v2.34c.54-.84 1.27-1.49 2.19-1.95.94-.46 1.97-.69 3.09-.69zm10.1595 8.46c0-1.68.34-3.15 1.02-4.41.68-1.28 1.61-2.27 2.79-2.97 1.2-.7 2.54-1.05 4.02-1.05 1.28 0 2.47.3 3.57.9 1.1.58 1.94 1.35 2.52 2.31v-8.7h2.76V41h-2.76v-3.09c-.54.98-1.34 1.79-2.4 2.43-1.06.62-2.3.93-3.72.93-1.46 0-2.79-.36-3.99-1.08-1.18-.72-2.11-1.73-2.79-3.03-.68-1.3-1.02-2.78-1.02-4.44zm13.92.03c0-1.24-.25-2.32-.75-3.24-.5-.92-1.18-1.62-2.04-2.1-.84-.5-1.77-.75-2.79-.75s-1.95.24-2.79.72c-.84.48-1.51 1.18-2.01 2.1-.5.92-.75 2-.75 3.24 0 1.26.25 2.36.75 3.3.5.92 1.17 1.63 2.01 2.13.84.48 1.77.72 2.79.72s1.95-.24 2.79-.72c.86-.5 1.54-1.21 2.04-2.13.5-.94.75-2.03.75-3.27zm29.2732-8.19L114.529 41h-2.82l-3.96-13.05-3.96 13.05h-2.82l-5.1598-16.44h2.79l3.7798 13.8 4.08-13.8h2.79l3.99 13.83 3.72-13.83h2.7zm1.69 8.16c0-1.68.34-3.15 1.02-4.41.68-1.28 1.61-2.27 2.79-2.97 1.2-.7 2.53-1.05 3.99-1.05 1.44 0 2.69.31 3.75.93 1.06.62 1.85 1.4 2.37 2.34v-3h2.76V41h-2.76v-3.06c-.54.96-1.35 1.76-2.43 2.4-1.06.62-2.3.93-3.72.93-1.46 0-2.78-.36-3.96-1.08-1.18-.72-2.11-1.73-2.79-3.03-.68-1.3-1.02-2.78-1.02-4.44zm13.92.03c0-1.24-.25-2.32-.75-3.24-.5-.92-1.18-1.62-2.04-2.1-.84-.5-1.77-.75-2.79-.75s-1.95.24-2.79.72c-.84.48-1.51 1.18-2.01 2.1-.5.92-.75 2-.75 3.24 0 1.26.25 2.36.75 3.3.5.92 1.17 1.63 2.01 2.13.84.48 1.77.72 2.79.72s1.95-.24 2.79-.72c.86-.5 1.54-1.21 2.04-2.13.5-.94.75-2.03.75-3.27zm13.493 5.73l5.1-13.92h2.91L150.322 41h-3.18l-6.45-16.44h2.94l5.13 13.92zm25.696-6.33c0 .52-.03 1.07-.09 1.65h-13.14c.1 1.62.65 2.89 1.65 3.81 1.02.9 2.25 1.35 3.69 1.35 1.18 0 2.16-.27 2.94-.81.8-.56 1.36-1.3 1.68-2.22h2.94c-.44 1.58-1.32 2.87-2.64 3.87-1.32.98-2.96 1.47-4.92 1.47-1.56 0-2.96-.35-4.2-1.05-1.22-.7-2.18-1.69-2.88-2.97-.7-1.3-1.05-2.8-1.05-4.5 0-1.7.34-3.19 1.02-4.47.68-1.28 1.63-2.26 2.85-2.94 1.24-.7 2.66-1.05 4.26-1.05 1.56 0 2.94.34 4.14 1.02 1.2.68 2.12 1.62 2.76 2.82.66 1.18.99 2.52.99 4.02zm-2.82-.57c0-1.04-.23-1.93-.69-2.67-.46-.76-1.09-1.33-1.89-1.71-.78-.4-1.65-.6-2.61-.6-1.38 0-2.56.44-3.54 1.32-.96.88-1.51 2.1-1.65 3.66h10.38z" fill="#fff"/></svg>