<svg width="831" height="54" viewBox="0 0 831 54" fill="none" xmlns="http://www.w3.org/2000/svg"><path d="M10.728 40.252c-1.656 0-3.144-.288-4.464-.864-1.296-.6-2.316-1.416-3.06-2.448-.744-1.056-1.128-2.268-1.152-3.636h3.492c.12 1.176.6 2.172 1.44 2.988.864.792 2.112 1.188 3.744 1.188 1.56 0 2.784-.384 3.672-1.152.912-.792 1.368-1.8 1.368-3.024 0-.96-.264-1.74-.792-2.34-.528-.6-1.188-1.056-1.98-1.368-.792-.312-1.86-.648-3.204-1.008-1.656-.432-2.988-.864-3.996-1.296-.984-.432-1.836-1.104-2.556-2.016-.696-.936-1.044-2.184-1.044-3.744 0-1.368.348-2.58 1.044-3.636.696-1.056 1.668-1.872 2.916-2.448 1.272-.576 2.724-.864 4.356-.864 2.352 0 4.272.588 5.76 1.764 1.512 1.176 2.364 2.736 2.556 4.68h-3.6c-.12-.96-.624-1.8-1.512-2.52-.888-.744-2.064-1.116-3.528-1.116-1.368 0-2.484.36-3.348 1.08-.864.696-1.296 1.68-1.296 2.952 0 .912.252 1.656.756 2.232.528.576 1.164 1.02 1.908 1.332.768.288 1.836.624 3.204 1.008 1.656.456 2.988.912 3.996 1.368 1.008.432 1.872 1.116 2.592 2.052.72.912 1.08 2.16 1.08 3.744 0 1.224-.324 2.376-.972 3.456-.648 1.08-1.608 1.956-2.88 2.628-1.272.672-2.772 1.008-4.5 1.008zm17.1689-17.28V34.6c0 .96.204 1.644.612 2.052.408.384 1.116.576 2.124.576h2.412V40h-2.952c-1.824 0-3.192-.42-4.104-1.26-.912-.84-1.368-2.22-1.368-4.14V22.972h-2.556v-2.7h2.556v-4.968h3.276v4.968h5.148v2.7h-5.148zm12.3933.504c.576-1.128 1.392-2.004 2.448-2.628 1.08-.624 2.388-.936 3.924-.936v3.384h-.864c-3.672 0-5.508 1.992-5.508 5.976V40h-3.276V20.272h3.276v3.204zm28.1537 5.904c0 .624-.036 1.284-.108 1.98h-15.768c.12 1.944.78 3.468 1.98 4.572 1.224 1.08 2.7 1.62 4.428 1.62 1.416 0 2.592-.324 3.528-.972.96-.672 1.632-1.56 2.016-2.664h3.528c-.528 1.896-1.584 3.444-3.168 4.644-1.584 1.176-3.552 1.764-5.904 1.764-1.872 0-3.552-.42-5.04-1.26-1.464-.84-2.616-2.028-3.456-3.564-.84-1.56-1.26-3.36-1.26-5.4 0-2.04.408-3.828 1.224-5.364.816-1.536 1.956-2.712 3.42-3.528 1.488-.84 3.192-1.26 5.112-1.26 1.872 0 3.528.408 4.968 1.224 1.44.816 2.544 1.944 3.312 3.384.792 1.416 1.188 3.024 1.188 4.824zm-3.384-.684c0-1.248-.276-2.316-.828-3.204-.552-.912-1.308-1.596-2.268-2.052-.936-.48-1.98-.72-3.132-.72-1.656 0-3.072.528-4.248 1.584-1.152 1.056-1.812 2.52-1.98 4.392h12.456zm6.4842 1.368c0-2.016.408-3.78 1.224-5.292.816-1.536 1.932-2.724 3.348-3.564 1.44-.84 3.036-1.26 4.788-1.26 1.728 0 3.228.372 4.5 1.116 1.272.744 2.22 1.68 2.844 2.808v-3.6h3.312V40h-3.312v-3.672c-.648 1.152-1.62 2.112-2.916 2.88-1.272.744-2.76 1.116-4.464 1.116-1.752 0-3.336-.432-4.752-1.296-1.416-.864-2.532-2.076-3.348-3.636-.816-1.56-1.224-3.336-1.224-5.328zm16.704.036c0-1.488-.3-2.784-.9-3.888-.6-1.104-1.416-1.944-2.448-2.52-1.008-.6-2.124-.9-3.348-.9-1.224 0-2.34.288-3.348.864-1.008.576-1.812 1.416-2.412 2.52-.6 1.104-.9 2.4-.9 3.888 0 1.512.3 2.832.9 3.96.6 1.104 1.404 1.956 2.412 2.556 1.008.576 2.124.864 3.348.864 1.224 0 2.34-.288 3.348-.864 1.032-.6 1.848-1.452 2.448-2.556.6-1.128.9-2.436.9-3.924zM120.82 19.912c1.536 0 2.904.324 4.104.972 1.2.624 2.148 1.572 2.844 2.844.696 1.272 1.044 2.82 1.044 4.644V40h-3.24V28.84c0-1.968-.492-3.468-1.476-4.5-.96-1.056-2.268-1.584-3.924-1.584-1.704 0-3.06.552-4.068 1.656-1.008 1.08-1.512 2.652-1.512 4.716V40h-3.24V28.84c0-1.968-.492-3.468-1.476-4.5-.96-1.056-2.268-1.584-3.924-1.584-1.704 0-3.06.552-4.068 1.656-1.008 1.08-1.512 2.652-1.512 4.716V40h-3.2758V20.272h3.2758v2.844c.648-1.032 1.512-1.824 2.592-2.376 1.104-.552 2.316-.828 3.636-.828 1.656 0 3.12.372 4.392 1.116 1.272.744 2.22 1.836 2.844 3.276.552-1.392 1.464-2.472 2.736-3.24 1.272-.768 2.688-1.152 4.248-1.152zm31.568 20.412c-1.848 0-3.528-.42-5.04-1.26-1.488-.84-2.664-2.028-3.528-3.564-.84-1.56-1.26-3.36-1.26-5.4 0-2.016.432-3.792 1.296-5.328.888-1.56 2.088-2.748 3.6-3.564 1.512-.84 3.204-1.26 5.076-1.26 1.872 0 3.564.42 5.076 1.26 1.512.816 2.7 1.992 3.564 3.528.888 1.536 1.332 3.324 1.332 5.364s-.456 3.84-1.368 5.4c-.888 1.536-2.1 2.724-3.636 3.564-1.536.84-3.24 1.26-5.112 1.26zm0-2.88c1.176 0 2.28-.276 3.312-.828 1.032-.552 1.86-1.38 2.484-2.484.648-1.104.972-2.448.972-4.032s-.312-2.928-.936-4.032c-.624-1.104-1.44-1.92-2.448-2.448-1.008-.552-2.1-.828-3.276-.828-1.2 0-2.304.276-3.312.828-.984.528-1.776 1.344-2.376 2.448-.6 1.104-.9 2.448-.9 4.032 0 1.608.288 2.964.864 4.068.6 1.104 1.392 1.932 2.376 2.484.984.528 2.064.792 3.24.792zm21.767-.468l6.12-16.704h3.492L176.027 40h-3.816l-7.74-19.728h3.528l6.156 16.704zm30.836-7.596c0 .624-.036 1.284-.108 1.98h-15.768c.12 1.944.78 3.468 1.98 4.572 1.224 1.08 2.7 1.62 4.428 1.62 1.416 0 2.592-.324 3.528-.972.96-.672 1.632-1.56 2.016-2.664h3.528c-.528 1.896-1.584 3.444-3.168 4.644-1.584 1.176-3.552 1.764-5.904 1.764-1.872 0-3.552-.42-5.04-1.26-1.464-.84-2.616-2.028-3.456-3.564-.84-1.56-1.26-3.36-1.26-5.4 0-2.04.408-3.828 1.224-5.364.816-1.536 1.956-2.712 3.42-3.528 1.488-.84 3.192-1.26 5.112-1.26 1.872 0 3.528.408 4.968 1.224 1.44.816 2.544 1.944 3.312 3.384.792 1.416 1.188 3.024 1.188 4.824zm-3.384-.684c0-1.248-.276-2.316-.828-3.204-.552-.912-1.308-1.596-2.268-2.052-.936-.48-1.98-.72-3.132-.72-1.656 0-3.072.528-4.248 1.584-1.152 1.056-1.812 2.52-1.98 4.392h12.456zm10.984-5.22c.576-1.128 1.392-2.004 2.448-2.628 1.08-.624 2.388-.936 3.924-.936v3.384h-.864c-3.672 0-5.508 1.992-5.508 5.976V40h-3.276V20.272h3.276v3.204zm18.815 13.896c3.048-2.448 5.436-4.452 7.164-6.012 1.728-1.584 3.18-3.228 4.356-4.932 1.2-1.728 1.8-3.42 1.8-5.076 0-1.56-.384-2.784-1.152-3.672-.744-.912-1.956-1.368-3.636-1.368-1.632 0-2.904.516-3.816 1.548-.888 1.008-1.368 2.364-1.44 4.068h-3.168c.096-2.688.912-4.764 2.448-6.228 1.536-1.464 3.516-2.196 5.94-2.196 2.472 0 4.428.684 5.868 2.052 1.464 1.368 2.196 3.252 2.196 5.652 0 1.992-.6 3.936-1.8 5.832-1.176 1.872-2.52 3.528-4.032 4.968-1.512 1.416-3.444 3.072-5.796 4.968h12.384v2.736h-17.316v-2.34zm21.103-10.656c0-4.128.672-7.344 2.016-9.648 1.344-2.328 3.696-3.492 7.056-3.492 3.336 0 5.676 1.164 7.02 3.492 1.344 2.304 2.016 5.52 2.016 9.648 0 4.2-.672 7.464-2.016 9.792-1.344 2.328-3.684 3.492-7.02 3.492-3.36 0-5.712-1.164-7.056-3.492-1.344-2.328-2.016-5.592-2.016-9.792zm14.868 0c0-2.088-.144-3.852-.432-5.292-.264-1.464-.828-2.64-1.692-3.528-.84-.888-2.064-1.332-3.672-1.332-1.632 0-2.88.444-3.744 1.332-.84.888-1.404 2.064-1.692 3.528-.264 1.44-.396 3.204-.396 5.292 0 2.16.132 3.972.396 5.436.288 1.464.852 2.64 1.692 3.528.864.888 2.112 1.332 3.744 1.332 1.608 0 2.832-.444 3.672-1.332.864-.888 1.428-2.064 1.692-3.528.288-1.464.432-3.276.432-5.436zm21.871-3.744V34.6c0 .96.204 1.644.612 2.052.408.384 1.116.576 2.124.576h2.412V40h-2.952c-1.824 0-3.192-.42-4.104-1.26-.912-.84-1.368-2.22-1.368-4.14V22.972h-2.556v-2.7h2.556v-4.968h3.276v4.968h5.148v2.7h-5.148zm18.91-3.06c1.488 0 2.832.324 4.032.972 1.2.624 2.136 1.572 2.808 2.844.696 1.272 1.044 2.82 1.044 4.644V40h-3.24V28.84c0-1.968-.492-3.468-1.476-4.5-.984-1.056-2.328-1.584-4.032-1.584-1.728 0-3.108.54-4.14 1.62-1.008 1.08-1.512 2.652-1.512 4.716V40h-3.276V13.36h3.276v9.72c.648-1.008 1.536-1.788 2.664-2.34 1.152-.552 2.436-.828 3.852-.828zm21.839 20.412c-1.848 0-3.528-.42-5.04-1.26-1.488-.84-2.664-2.028-3.528-3.564-.84-1.56-1.26-3.36-1.26-5.4 0-2.016.432-3.792 1.296-5.328.888-1.56 2.088-2.748 3.6-3.564 1.512-.84 3.204-1.26 5.076-1.26 1.872 0 3.564.42 5.076 1.26 1.512.816 2.7 1.992 3.564 3.528.888 1.536 1.332 3.324 1.332 5.364s-.456 3.84-1.368 5.4c-.888 1.536-2.1 2.724-3.636 3.564-1.536.84-3.24 1.26-5.112 1.26zm0-2.88c1.176 0 2.28-.276 3.312-.828 1.032-.552 1.86-1.38 2.484-2.484.648-1.104.972-2.448.972-4.032s-.312-2.928-.936-4.032c-.624-1.104-1.44-1.92-2.448-2.448-1.008-.552-2.1-.828-3.276-.828-1.2 0-2.304.276-3.312.828-.984.528-1.776 1.344-2.376 2.448-.6 1.104-.9 2.448-.9 4.032 0 1.608.288 2.964.864 4.068.6 1.104 1.392 1.932 2.376 2.484.984.528 2.064.792 3.24.792zm31.919-17.172V40h-3.276v-2.916c-.624 1.008-1.5 1.8-2.628 2.376-1.104.552-2.328.828-3.672.828-1.536 0-2.916-.312-4.14-.936-1.224-.648-2.196-1.608-2.916-2.88-.696-1.272-1.044-2.82-1.044-4.644V20.272h3.24v11.124c0 1.944.492 3.444 1.476 4.5.984 1.032 2.328 1.548 4.032 1.548 1.752 0 3.132-.54 4.14-1.62 1.008-1.08 1.512-2.652 1.512-4.716V20.272h3.276zm12.516 20.052c-1.512 0-2.868-.252-4.068-.756-1.2-.528-2.148-1.248-2.844-2.16-.696-.936-1.08-2.004-1.152-3.204h3.384c.096.984.552 1.788 1.368 2.412.84.624 1.932.936 3.276.936 1.248 0 2.232-.276 2.952-.828.72-.552 1.08-1.248 1.08-2.088 0-.864-.384-1.5-1.152-1.908-.768-.432-1.956-.852-3.564-1.26-1.464-.384-2.664-.768-3.6-1.152-.912-.408-1.704-.996-2.376-1.764-.648-.792-.972-1.824-.972-3.096 0-1.008.3-1.932.9-2.772.6-.84 1.452-1.5 2.556-1.98 1.104-.504 2.364-.756 3.78-.756 2.184 0 3.948.552 5.292 1.656 1.344 1.104 2.064 2.616 2.16 4.536h-3.276c-.072-1.032-.492-1.86-1.26-2.484-.744-.624-1.752-.936-3.024-.936-1.176 0-2.112.252-2.808.756-.696.504-1.044 1.164-1.044 1.98 0 .648.204 1.188.612 1.62.432.408.96.744 1.584 1.008.648.24 1.536.516 2.664.828 1.416.384 2.568.768 3.456 1.152.888.36 1.644.912 2.268 1.656.648.744.984 1.716 1.008 2.916 0 1.08-.3 2.052-.9 2.916-.6.864-1.452 1.548-2.556 2.052-1.08.48-2.328.72-3.744.72zm10.6-10.26c0-2.016.408-3.78 1.224-5.292.816-1.536 1.932-2.724 3.348-3.564 1.44-.84 3.036-1.26 4.788-1.26 1.728 0 3.228.372 4.5 1.116 1.272.744 2.22 1.68 2.844 2.808v-3.6h3.312V40h-3.312v-3.672c-.648 1.152-1.62 2.112-2.916 2.88-1.272.744-2.76 1.116-4.464 1.116-1.752 0-3.336-.432-4.752-1.296-1.416-.864-2.532-2.076-3.348-3.636-.816-1.56-1.224-3.336-1.224-5.328zm16.704.036c0-1.488-.3-2.784-.9-3.888-.6-1.104-1.416-1.944-2.448-2.52-1.008-.6-2.124-.9-3.348-.9-1.224 0-2.34.288-3.348.864-1.008.576-1.812 1.416-2.412 2.52-.6 1.104-.9 2.4-.9 3.888 0 1.512.3 2.832.9 3.96.6 1.104 1.404 1.956 2.412 2.556 1.008.576 2.124.864 3.348.864 1.224 0 2.34-.288 3.348-.864 1.032-.6 1.848-1.452 2.448-2.556.6-1.128.9-2.436.9-3.924zm18.461-10.188c2.4 0 4.344.732 5.832 2.196 1.488 1.44 2.232 3.528 2.232 6.264V40h-3.24V28.84c0-1.968-.492-3.468-1.476-4.5-.984-1.056-2.328-1.584-4.032-1.584-1.728 0-3.108.54-4.14 1.62-1.008 1.08-1.512 2.652-1.512 4.716V40h-3.276V20.272h3.276v2.808c.648-1.008 1.524-1.788 2.628-2.34 1.128-.552 2.364-.828 3.708-.828zm12.191 10.152c0-2.016.408-3.78 1.224-5.292.816-1.536 1.932-2.724 3.348-3.564 1.44-.84 3.048-1.26 4.824-1.26 1.536 0 2.964.36 4.284 1.08 1.32.696 2.328 1.62 3.024 2.772V13.36h3.312V40h-3.312v-3.708c-.648 1.176-1.608 2.148-2.88 2.916-1.272.744-2.76 1.116-4.464 1.116-1.752 0-3.348-.432-4.788-1.296-1.416-.864-2.532-2.076-3.348-3.636-.816-1.56-1.224-3.336-1.224-5.328zm16.704.036c0-1.488-.3-2.784-.9-3.888-.6-1.104-1.416-1.944-2.448-2.52-1.008-.6-2.124-.9-3.348-.9-1.224 0-2.34.288-3.348.864-1.008.576-1.812 1.416-2.412 2.52-.6 1.104-.9 2.4-.9 3.888 0 1.512.3 2.832.9 3.96.6 1.104 1.404 1.956 2.412 2.556 1.008.576 2.124.864 3.348.864 1.224 0 2.34-.288 3.348-.864 1.032-.6 1.848-1.452 2.448-2.556.6-1.128.9-2.436.9-3.924zm25.43 10.224c-1.512 0-2.868-.252-4.068-.756-1.2-.528-2.148-1.248-2.844-2.16-.696-.936-1.08-2.004-1.152-3.204h3.384c.096.984.552 1.788 1.368 2.412.84.624 1.932.936 3.276.936 1.248 0 2.232-.276 2.952-.828.72-.552 1.08-1.248 1.08-2.088 0-.864-.384-1.5-1.152-1.908-.768-.432-1.956-.852-3.564-1.26-1.464-.384-2.664-.768-3.6-1.152-.912-.408-1.704-.996-2.376-1.764-.648-.792-.972-1.824-.972-3.096 0-1.008.3-1.932.9-2.772.6-.84 1.452-1.5 2.556-1.98 1.104-.504 2.364-.756 3.78-.756 2.184 0 3.948.552 5.292 1.656 1.344 1.104 2.064 2.616 2.16 4.536h-3.276c-.072-1.032-.492-1.86-1.26-2.484-.744-.624-1.752-.936-3.024-.936-1.176 0-2.112.252-2.808.756-.696.504-1.044 1.164-1.044 1.98 0 .648.204 1.188.612 1.62.432.408.96.744 1.584 1.008.648.24 1.536.516 2.664.828 1.416.384 2.568.768 3.456 1.152.888.36 1.644.912 2.268 1.656.648.744.984 1.716 1.008 2.916 0 1.08-.3 2.052-.9 2.916-.6.864-1.452 1.548-2.556 2.052-1.08.48-2.328.72-3.744.72zm20.428 0c-1.848 0-3.528-.42-5.04-1.26-1.488-.84-2.664-2.028-3.528-3.564-.84-1.56-1.26-3.36-1.26-5.4 0-2.016.432-3.792 1.296-5.328.888-1.56 2.088-2.748 3.6-3.564 1.512-.84 3.204-1.26 5.076-1.26 1.872 0 3.564.42 5.076 1.26 1.512.816 2.7 1.992 3.564 3.528.888 1.536 1.332 3.324 1.332 5.364s-.456 3.84-1.368 5.4c-.888 1.536-2.1 2.724-3.636 3.564-1.536.84-3.24 1.26-5.112 1.26zm0-2.88c1.176 0 2.28-.276 3.312-.828 1.032-.552 1.86-1.38 2.484-2.484.648-1.104.972-2.448.972-4.032s-.312-2.928-.936-4.032c-.624-1.104-1.44-1.92-2.448-2.448-1.008-.552-2.1-.828-3.276-.828-1.2 0-2.304.276-3.312.828-.984.528-1.776 1.344-2.376 2.448-.6 1.104-.9 2.448-.9 4.032 0 1.608.288 2.964.864 4.068.6 1.104 1.392 1.932 2.376 2.484.984.528 2.064.792 3.24.792zm24.036-17.532c2.4 0 4.344.732 5.832 2.196 1.488 1.44 2.232 3.528 2.232 6.264V40h-3.24V28.84c0-1.968-.492-3.468-1.476-4.5-.984-1.056-2.328-1.584-4.032-1.584-1.728 0-3.108.54-4.14 1.62-1.008 1.08-1.512 2.652-1.512 4.716V40h-3.276V20.272h3.276v2.808c.648-1.008 1.524-1.788 2.628-2.34 1.128-.552 2.364-.828 3.708-.828zm21.551.036c1.704 0 3.192.372 4.464 1.116 1.296.744 2.256 1.68 2.88 2.808v-3.6h3.312v20.16c0 1.8-.384 3.396-1.152 4.788-.768 1.416-1.872 2.52-3.312 3.312-1.416.792-3.072 1.188-4.968 1.188-2.592 0-4.752-.612-6.48-1.836-1.728-1.224-2.748-2.892-3.06-5.004h3.24c.36 1.2 1.104 2.16 2.232 2.88 1.128.744 2.484 1.116 4.068 1.116 1.8 0 3.264-.564 4.392-1.692 1.152-1.128 1.728-2.712 1.728-4.752v-4.14c-.648 1.152-1.608 2.112-2.88 2.88-1.272.768-2.76 1.152-4.464 1.152-1.752 0-3.348-.432-4.788-1.296-1.416-.864-2.532-2.076-3.348-3.636-.816-1.56-1.224-3.336-1.224-5.328 0-2.016.408-3.78 1.224-5.292.816-1.536 1.932-2.724 3.348-3.564 1.44-.84 3.036-1.26 4.788-1.26zm7.344 10.152c0-1.488-.3-2.784-.9-3.888-.6-1.104-1.416-1.944-2.448-2.52-1.008-.6-2.124-.9-3.348-.9-1.224 0-2.34.288-3.348.864-1.008.576-1.812 1.416-2.412 2.52-.6 1.104-.9 2.4-.9 3.888 0 1.512.3 2.832.9 3.96.6 1.104 1.404 1.956 2.412 2.556 1.008.576 2.124.864 3.348.864 1.224 0 2.34-.288 3.348-.864 1.032-.6 1.848-1.452 2.448-2.556.6-1.128.9-2.436.9-3.924zm15.832 10.224c-1.512 0-2.868-.252-4.068-.756-1.2-.528-2.148-1.248-2.844-2.16-.696-.936-1.08-2.004-1.152-3.204h3.384c.096.984.552 1.788 1.368 2.412.84.624 1.932.936 3.276.936 1.248 0 2.232-.276 2.952-.828.72-.552 1.08-1.248 1.08-2.088 0-.864-.384-1.5-1.152-1.908-.768-.432-1.956-.852-3.564-1.26-1.464-.384-2.664-.768-3.6-1.152-.912-.408-1.704-.996-2.376-1.764-.648-.792-.972-1.824-.972-3.096 0-1.008.3-1.932.9-2.772.6-.84 1.452-1.5 2.556-1.98 1.104-.504 2.364-.756 3.78-.756 2.184 0 3.948.552 5.292 1.656 1.344 1.104 2.064 2.616 2.16 4.536h-3.276c-.072-1.032-.492-1.86-1.26-2.484-.744-.624-1.752-.936-3.024-.936-1.176 0-2.112.252-2.808.756-.696.504-1.044 1.164-1.044 1.98 0 .648.204 1.188.612 1.62.432.408.96.744 1.584 1.008.648.24 1.536.516 2.664.828 1.416.384 2.568.768 3.456 1.152.888.36 1.644.912 2.268 1.656.648.744.984 1.716 1.008 2.916 0 1.08-.3 2.052-.9 2.916-.6.864-1.452 1.548-2.556 2.052-1.08.48-2.328.72-3.744.72zm47.702-20.052L605.259 40h-3.384l-4.752-15.66L592.371 40h-3.384l-6.192-19.728h3.348l4.536 16.56 4.896-16.56h3.348l4.788 16.596 4.464-16.596h3.24zm4.944-3.204c-.624 0-1.152-.216-1.584-.648-.432-.432-.648-.96-.648-1.584 0-.624.216-1.152.648-1.584.432-.432.96-.648 1.584-.648.6 0 1.104.216 1.512.648.432.432.648.96.648 1.584 0 .624-.216 1.152-.648 1.584-.408.432-.912.648-1.512.648zm1.584 3.204V40h-3.276V20.272h3.276zm9.579 2.7V34.6c0 .96.204 1.644.612 2.052.408.384 1.116.576 2.124.576h2.412V40h-2.952c-1.824 0-3.192-.42-4.104-1.26-.912-.84-1.368-2.22-1.368-4.14V22.972h-2.556v-2.7h2.556v-4.968h3.276v4.968h5.148v2.7h-5.148zm18.909-3.06c1.488 0 2.832.324 4.032.972 1.2.624 2.136 1.572 2.808 2.844.696 1.272 1.044 2.82 1.044 4.644V40h-3.24V28.84c0-1.968-.492-3.468-1.476-4.5-.984-1.056-2.328-1.584-4.032-1.584-1.728 0-3.108.54-4.14 1.62-1.008 1.08-1.512 2.652-1.512 4.716V40h-3.276V13.36h3.276v9.72c.648-1.008 1.536-1.788 2.664-2.34 1.152-.552 2.436-.828 3.852-.828zm31.437 20.412c-1.848 0-3.528-.42-5.04-1.26-1.488-.84-2.664-2.028-3.528-3.564-.84-1.56-1.26-3.36-1.26-5.4 0-2.016.432-3.792 1.296-5.328.888-1.56 2.088-2.748 3.6-3.564 1.512-.84 3.204-1.26 5.076-1.26 1.872 0 3.564.42 5.076 1.26 1.512.816 2.7 1.992 3.564 3.528.888 1.536 1.332 3.324 1.332 5.364s-.456 3.84-1.368 5.4c-.888 1.536-2.1 2.724-3.636 3.564-1.536.84-3.24 1.26-5.112 1.26zm0-2.88c1.176 0 2.28-.276 3.312-.828 1.032-.552 1.86-1.38 2.484-2.484.648-1.104.972-2.448.972-4.032s-.312-2.928-.936-4.032c-.624-1.104-1.44-1.92-2.448-2.448-1.008-.552-2.1-.828-3.276-.828-1.2 0-2.304.276-3.312.828-.984.528-1.776 1.344-2.376 2.448-.6 1.104-.9 2.448-.9 4.032 0 1.608.288 2.964.864 4.068.6 1.104 1.392 1.932 2.376 2.484.984.528 2.064.792 3.24.792zm24.036-17.532c2.4 0 4.344.732 5.832 2.196 1.488 1.44 2.232 3.528 2.232 6.264V40h-3.24V28.84c0-1.968-.492-3.468-1.476-4.5-.984-1.056-2.328-1.584-4.032-1.584-1.728 0-3.108.54-4.14 1.62-1.008 1.08-1.512 2.652-1.512 4.716V40h-3.276V20.272h3.276v2.808c.648-1.008 1.524-1.788 2.628-2.34 1.128-.552 2.364-.828 3.708-.828zm31.415 9.468c0 .624-.036 1.284-.108 1.98h-15.768c.12 1.944.78 3.468 1.98 4.572 1.224 1.08 2.7 1.62 4.428 1.62 1.416 0 2.592-.324 3.528-.972.96-.672 1.632-1.56 2.016-2.664h3.528c-.528 1.896-1.584 3.444-3.168 4.644-1.584 1.176-3.552 1.764-5.904 1.764-1.872 0-3.552-.42-5.04-1.26-1.464-.84-2.616-2.028-3.456-3.564-.84-1.56-1.26-3.36-1.26-5.4 0-2.04.408-3.828 1.224-5.364.816-1.536 1.956-2.712 3.42-3.528 1.488-.84 3.192-1.26 5.112-1.26 1.872 0 3.528.408 4.968 1.224 1.44.816 2.544 1.944 3.312 3.384.792 1.416 1.188 3.024 1.188 4.824zm-3.384-.684c0-1.248-.276-2.316-.828-3.204-.552-.912-1.308-1.596-2.268-2.052-.936-.48-1.98-.72-3.132-.72-1.656 0-3.072.528-4.248 1.584-1.152 1.056-1.812 2.52-1.98 4.392h12.456zm16.082 1.404c0-2.04.408-3.816 1.224-5.328.816-1.536 1.944-2.724 3.384-3.564 1.464-.84 3.132-1.26 5.004-1.26 2.424 0 4.416.588 5.976 1.764 1.584 1.176 2.628 2.808 3.132 4.896h-3.528c-.336-1.2-.996-2.148-1.98-2.844-.96-.696-2.16-1.044-3.6-1.044-1.872 0-3.384.648-4.536 1.944-1.152 1.272-1.728 3.084-1.728 5.436 0 2.376.576 4.212 1.728 5.508 1.152 1.296 2.664 1.944 4.536 1.944 1.44 0 2.64-.336 3.6-1.008.96-.672 1.62-1.632 1.98-2.88h3.528c-.528 2.016-1.584 3.636-3.168 4.86-1.584 1.2-3.564 1.8-5.94 1.8-1.872 0-3.54-.42-5.004-1.26-1.44-.84-2.568-2.028-3.384-3.564-.816-1.536-1.224-3.336-1.224-5.4zm26.367-16.74V40h-3.276V13.36h3.276zm7.275 3.708c-.624 0-1.152-.216-1.584-.648-.432-.432-.648-.96-.648-1.584 0-.624.216-1.152.648-1.584.432-.432.96-.648 1.584-.648.6 0 1.104.216 1.512.648.432.432.648.96.648 1.584 0 .624-.216 1.152-.648 1.584-.408.432-.912.648-1.512.648zm1.584 3.204V40h-3.276V20.272h3.276zm4.36 9.828c0-2.04.408-3.816 1.224-5.328.816-1.536 1.944-2.724 3.384-3.564 1.464-.84 3.132-1.26 5.004-1.26 2.424 0 4.416.588 5.976 1.764 1.584 1.176 2.628 2.808 3.132 4.896h-3.528c-.336-1.2-.996-2.148-1.98-2.844-.96-.696-2.16-1.044-3.6-1.044-1.872 0-3.384.648-4.536 1.944-1.152 1.272-1.728 3.084-1.728 5.436 0 2.376.576 4.212 1.728 5.508 1.152 1.296 2.664 1.944 4.536 1.944 1.44 0 2.64-.336 3.6-1.008.96-.672 1.62-1.632 1.98-2.88h3.528c-.528 2.016-1.584 3.636-3.168 4.86-1.584 1.2-3.564 1.8-5.94 1.8-1.872 0-3.54-.42-5.004-1.26-1.44-.84-2.568-2.028-3.384-3.564-.816-1.536-1.224-3.336-1.224-5.4zM819.71 40l-7.74-8.712V40h-3.276V13.36h3.276v15.66l7.596-8.748h4.572L814.85 30.1l9.324 9.9h-4.464z" fill="#fff"/></svg>