<svg width="112" height="39" viewBox="0 0 112 39" fill="none" xmlns="http://www.w3.org/2000/svg"><path d="M7.644 10.878c1.976 0 3.6833.3727 5.122 1.118 1.456.728 2.5653 1.7767 3.328 3.146.78 1.3693 1.17 2.9813 1.17 4.836 0 1.8547-.39 3.4667-1.17 4.836-.7627 1.352-1.872 2.392-3.328 3.12C11.3273 28.6447 9.62 29 7.644 29H2.002V10.878h5.642zm0 16.172c2.34 0 4.1253-.6153 5.356-1.846 1.2307-1.248 1.846-2.99 1.846-5.226 0-2.2533-.624-4.0127-1.872-5.278-1.2307-1.2653-3.00733-1.898-5.33-1.898H4.368V27.05h3.276zm13.9628-14.612c-.4507 0-.832-.156-1.144-.468-.312-.312-.468-.6933-.468-1.144 0-.4507.156-.832.468-1.144.312-.312.6933-.468 1.144-.468.4333 0 .7973.156 1.092.468.312.312.468.6933.468 1.144 0 .4507-.156.832-.468 1.144-.2947.312-.6587.468-1.092.468zm1.144 2.314V29h-2.366V14.752h2.366zm9.0765 14.482c-1.092 0-2.0714-.182-2.938-.546-.8667-.3813-1.5514-.9013-2.054-1.56-.5027-.676-.78-1.4473-.832-2.314h2.444c.0693.7107.3986 1.2913.988 1.742.6066.4507 1.3953.676 2.366.676.9013 0 1.612-.1993 2.132-.598.52-.3987.78-.9013.78-1.508 0-.624-.2774-1.0833-.832-1.378-.5547-.312-1.4127-.6153-2.574-.91-1.0574-.2773-1.924-.5547-2.6-.832-.6587-.2947-1.2307-.7193-1.716-1.274-.468-.572-.702-1.3173-.702-2.236 0-.728.2166-1.3953.65-2.002.4333-.6067 1.0486-1.0833 1.846-1.43.7973-.364 1.7073-.546 2.73-.546 1.5773 0 2.8513.3987 3.822 1.196.9706.7973 1.4906 1.8893 1.56 3.276h-2.366c-.052-.7453-.3554-1.3433-.91-1.794-.5374-.4507-1.2654-.676-2.184-.676-.8494 0-1.5254.182-2.028.546-.5027.364-.754.8407-.754 1.43 0 .468.1473.858.442 1.17.312.2947.6933.5373 1.144.728.468.1733 1.1093.3727 1.924.598 1.0226.2773 1.8546.5547 2.496.832.6413.26 1.1873.6587 1.638 1.196.468.5373.7106 1.2393.728 2.106 0 .78-.2167 1.482-.65 2.106-.4334.624-1.0487 1.118-1.846 1.482-.78.3467-1.6814.52-2.704.52zm7.6559-7.384c0-1.4733.2947-2.756.884-3.848.5894-1.1093 1.404-1.9673 2.444-2.574 1.0574-.6067 2.262-.91 3.614-.91 1.7507 0 3.1894.4247 4.316 1.274 1.144.8493 1.898 2.028 2.262 3.536h-2.548c-.2426-.8667-.7193-1.5513-1.43-2.054-.6933-.5027-1.56-.754-2.6-.754-1.352 0-2.444.468-3.276 1.404-.832.9187-1.248 2.2273-1.248 3.926 0 1.716.416 3.042 1.248 3.978.832.936 1.924 1.404 3.276 1.404 1.04 0 1.9067-.2427 2.6-.728.6934-.4853 1.17-1.1787 1.43-2.08h2.548c-.3813 1.456-1.144 2.626-2.288 3.51-1.144.8667-2.574 1.3-4.29 1.3-1.352 0-2.5566-.3033-3.614-.91-1.04-.6067-1.8546-1.4647-2.444-2.574-.5893-1.1093-.884-2.4093-.884-3.9zm22.891 7.384c-1.3347 0-2.548-.3033-3.64-.91-1.0747-.6067-1.924-1.4647-2.548-2.574-.6067-1.1267-.91-2.4267-.91-3.9 0-1.456.312-2.7387.936-3.848.6413-1.1267 1.508-1.9847 2.6-2.574 1.092-.6067 2.314-.91 3.666-.91 1.352 0 2.574.3033 3.666.91 1.092.5893 1.95 1.4387 2.574 2.548.6413 1.1093.962 2.4007.962 3.874s-.3293 2.7733-.988 3.9c-.6413 1.1093-1.5167 1.9673-2.626 2.574-1.1093.6067-2.34.91-3.692.91zm0-2.08c.8493 0 1.6467-.1993 2.392-.598.7453-.3987 1.3433-.9967 1.794-1.794.468-.7973.702-1.768.702-2.912s-.2253-2.1147-.676-2.912c-.4507-.7973-1.04-1.3867-1.768-1.768-.728-.3987-1.5167-.598-2.366-.598-.8667 0-1.664.1993-2.392.598-.7107.3813-1.2827.9707-1.716 1.768s-.65 1.768-.65 2.912c0 1.1613.208 2.1407.624 2.938.4333.7973 1.0053 1.3953 1.716 1.794.7107.3813 1.4907.572 2.34.572zm15.7209-.338l4.42-12.064h2.522L79.4471 29h-2.756l-5.59-14.248h2.548l4.446 12.064zm22.2699-5.486c0 .4507-.026.9273-.078 1.43H88.8993c.0866 1.404.5633 2.5047 1.43 3.302.884.78 1.95 1.17 3.198 1.17 1.0226 0 1.872-.234 2.548-.702.6933-.4853 1.1786-1.1267 1.456-1.924h2.5477c-.3811 1.3693-1.1437 2.4873-2.2877 3.354-1.144.8493-2.5654 1.274-4.264 1.274-1.352 0-2.5654-.3033-3.64-.91-1.0574-.6067-1.8894-1.4647-2.496-2.574-.6067-1.1267-.91-2.4267-.91-3.9s.2946-2.7647.884-3.874c.5893-1.1093 1.4126-1.9587 2.47-2.548 1.0746-.6067 2.3053-.91 3.692-.91 1.352 0 2.548.2947 3.588.884 1.04.5893 1.8373 1.404 2.392 2.444.5717 1.0227.8577 2.184.8577 3.484zm-2.4437-.494c0-.9013-.1994-1.6727-.598-2.314-.3987-.6587-.9447-1.1527-1.638-1.482-.676-.3467-1.43-.52-2.262-.52-1.196 0-2.2187.3813-3.068 1.144-.832.7627-1.3087 1.82-1.43 3.172h8.996zm7.9327-3.77c.416-.8147 1.006-1.4473 1.768-1.898.78-.4507 1.725-.676 2.834-.676v2.444h-.624c-2.652 0-3.978 1.4387-3.978 4.316V29h-2.366V14.752h2.366v2.314z" fill="#fff"/></svg>