<svg width="530" height="89" viewBox="0 0 530 89" fill="none" xmlns="http://www.w3.org/2000/svg"><path d="M33.912 28.816v5.328H12.096v16.92h17.712v5.328H12.096V79H5.544V28.816h28.368zM77.8253 57.76c0 1.248-.072 2.568-.216 3.96h-31.536c.24 3.888 1.56 6.936 3.96 9.144 2.448 2.16 5.4 3.24 8.856 3.24 2.832 0 5.184-.648 7.056-1.944 1.92-1.344 3.264-3.12 4.032-5.328h7.056c-1.056 3.792-3.168 6.888-6.336 9.288-3.168 2.352-7.104 3.528-11.808 3.528-3.744 0-7.104-.84-10.08-2.52-2.928-1.68-5.232-4.056-6.912-7.128-1.68-3.12-2.52-6.72-2.52-10.8 0-4.08.816-7.656 2.448-10.728 1.632-3.072 3.912-5.424 6.84-7.056 2.976-1.68 6.384-2.52 10.224-2.52 3.744 0 7.056.816 9.936 2.448 2.88 1.632 5.088 3.888 6.624 6.768 1.584 2.832 2.376 6.048 2.376 9.648zm-6.768-1.368c0-2.496-.552-4.632-1.656-6.408-1.104-1.824-2.616-3.192-4.536-4.104-1.872-.96-3.96-1.44-6.264-1.44-3.312 0-6.144 1.056-8.496 3.168-2.304 2.112-3.624 5.04-3.96 8.784h24.912zm51.4167 1.368c0 1.248-.072 2.568-.216 3.96H90.7217c.24 3.888 1.56 6.936 3.96 9.144 2.448 2.16 5.4003 3.24 8.8563 3.24 2.832 0 5.184-.648 7.056-1.944 1.92-1.344 3.264-3.12 4.032-5.328h7.056c-1.056 3.792-3.168 6.888-6.336 9.288-3.168 2.352-7.104 3.528-11.808 3.528-3.7443 0-7.1043-.84-10.0803-2.52-2.928-1.68-5.232-4.056-6.912-7.128-1.68-3.12-2.52-6.72-2.52-10.8 0-4.08.816-7.656 2.448-10.728 1.632-3.072 3.912-5.424 6.84-7.056 2.976-1.68 6.384-2.52 10.2243-2.52 3.744 0 7.056.816 9.936 2.448 2.88 1.632 5.088 3.888 6.624 6.768 1.584 2.832 2.376 6.048 2.376 9.648zm-6.768-1.368c0-2.496-.552-4.632-1.656-6.408-1.104-1.824-2.616-3.192-4.536-4.104-1.872-.96-3.96-1.44-6.264-1.44-3.3123 0-6.1443 1.056-8.4963 3.168-2.304 2.112-3.624 5.04-3.96 8.784h24.9123zm21.968-30.672V79h-6.552V25.72h6.552zm61.25 3.096v5.328h-13.68V79h-6.552V34.144H164.94v-5.328h33.984zm27.649 10.008c2.976 0 5.664.648 8.064 1.944 2.4 1.248 4.272 3.144 5.616 5.688 1.392 2.544 2.088 5.64 2.088 9.288V79h-6.48V56.68c0-3.936-.984-6.936-2.952-9-1.968-2.112-4.656-3.168-8.064-3.168-3.456 0-6.216 1.08-8.28 3.24-2.016 2.16-3.024 5.304-3.024 9.432V79h-6.552V25.72h6.552v19.44c1.296-2.016 3.072-3.576 5.328-4.68 2.304-1.104 4.872-1.656 7.704-1.656zm62.471 18.936c0 1.248-.072 2.568-.216 3.96h-31.536c.24 3.888 1.56 6.936 3.96 9.144 2.448 2.16 5.4 3.24 8.856 3.24 2.832 0 5.184-.648 7.056-1.944 1.92-1.344 3.264-3.12 4.032-5.328h7.056c-1.056 3.792-3.168 6.888-6.336 9.288-3.168 2.352-7.104 3.528-11.808 3.528-3.744 0-7.104-.84-10.08-2.52-2.928-1.68-5.232-4.056-6.912-7.128-1.68-3.12-2.52-6.72-2.52-10.8 0-4.08.816-7.656 2.448-10.728 1.632-3.072 3.912-5.424 6.84-7.056 2.976-1.68 6.384-2.52 10.224-2.52 3.744 0 7.056.816 9.936 2.448 2.88 1.632 5.088 3.888 6.624 6.768 1.584 2.832 2.376 6.048 2.376 9.648zm-6.768-1.368c0-2.496-.552-4.632-1.656-6.408-1.104-1.824-2.616-3.192-4.536-4.104-1.872-.96-3.96-1.44-6.264-1.44-3.312 0-6.144 1.056-8.496 3.168-2.304 2.112-3.624 5.04-3.96 8.784h24.912zm85.516-27.216V79h-6.552V41.848L344.68 79h-4.608L323.44 41.776V79h-6.552V29.176h7.056l18.432 41.184 18.432-41.184h6.984zm46.103 10.368V79h-6.552v-5.832c-1.248 2.016-3 3.6-5.256 4.752-2.208 1.104-4.656 1.656-7.344 1.656-3.072 0-5.832-.624-8.28-1.872-2.448-1.296-4.392-3.216-5.832-5.76-1.392-2.544-2.088-5.64-2.088-9.288V39.544h6.48v22.248c0 3.888.984 6.888 2.952 9 1.968 2.064 4.656 3.096 8.064 3.096 3.504 0 6.264-1.08 8.28-3.24 2.016-2.16 3.024-5.304 3.024-9.432V39.544h6.552zm25.031 40.104c-3.024 0-5.736-.504-8.136-1.512-2.4-1.056-4.296-2.496-5.688-4.32-1.392-1.872-2.16-4.008-2.304-6.408h6.768c.192 1.968 1.104 3.576 2.736 4.824 1.68 1.248 3.864 1.872 6.552 1.872 2.496 0 4.464-.552 5.904-1.656 1.44-1.104 2.16-2.496 2.16-4.176 0-1.728-.768-3-2.304-3.816-1.536-.864-3.912-1.704-7.128-2.52-2.928-.768-5.328-1.536-7.2-2.304-1.824-.816-3.408-1.992-4.752-3.528-1.296-1.584-1.944-3.648-1.944-6.192 0-2.016.6-3.864 1.8-5.544 1.2-1.68 2.904-3 5.112-3.96 2.208-1.008 4.728-1.512 7.56-1.512 4.368 0 7.896 1.104 10.584 3.312 2.688 2.208 4.128 5.232 4.32 9.072h-6.552c-.144-2.064-.984-3.72-2.52-4.968-1.488-1.248-3.504-1.872-6.048-1.872-2.352 0-4.224.504-5.616 1.512-1.392 1.008-2.088 2.328-2.088 3.96 0 1.296.408 2.376 1.224 3.24.864.816 1.92 1.488 3.168 2.016 1.296.48 3.072 1.032 5.328 1.656 2.832.768 5.136 1.536 6.912 2.304 1.776.72 3.288 1.824 4.536 3.312 1.296 1.488 1.968 3.432 2.016 5.832 0 2.16-.6 4.104-1.8 5.832-1.2 1.728-2.904 3.096-5.112 4.104-2.16.96-4.656 1.44-7.488 1.44zm27.033-46.512c-1.248 0-2.304-.432-3.168-1.296-.864-.864-1.296-1.92-1.296-3.168 0-1.248.432-2.304 1.296-3.168.864-.864 1.92-1.296 3.168-1.296 1.2 0 2.208.432 3.024 1.296.864.864 1.296 1.92 1.296 3.168 0 1.248-.432 2.304-1.296 3.168-.816.864-1.824 1.296-3.024 1.296zm3.168 6.408V79h-6.552V39.544h6.552zm8.719 19.656c0-4.08.816-7.632 2.448-10.656 1.632-3.072 3.888-5.448 6.768-7.128 2.928-1.68 6.264-2.52 10.008-2.52 4.848 0 8.832 1.176 11.952 3.528 3.168 2.352 5.256 5.616 6.264 9.792h-7.056c-.672-2.4-1.992-4.296-3.96-5.688-1.92-1.392-4.32-2.088-7.2-2.088-3.744 0-6.768 1.296-9.072 3.888-2.304 2.544-3.456 6.168-3.456 10.872 0 4.752 1.152 8.424 3.456 11.016 2.304 2.592 5.328 3.888 9.072 3.888 2.88 0 5.28-.672 7.2-2.016 1.92-1.344 3.24-3.264 3.96-5.76h7.056c-1.056 4.032-3.168 7.272-6.336 9.72-3.168 2.4-7.128 3.6-11.88 3.6-3.744 0-7.08-.84-10.008-2.52-2.88-1.68-5.136-4.056-6.768-7.128-1.632-3.072-2.448-6.672-2.448-10.8z" fill="#fff"/></svg>