<svg width="54" height="39" viewBox="0 0 54 39" fill="none" xmlns="http://www.w3.org/2000/svg"><path d="M11.128 10.878v13.39c0 1.4907-.4593 2.6867-1.378 3.588-.91867.884-2.132 1.326-3.64 1.326-1.52533 0-2.74733-.4507-3.666-1.352-.91867-.9187-1.378-2.1667-1.378-3.744h2.366c.01733.884.24267 1.6033.676 2.158.45067.5547 1.118.832 2.002.832.884 0 1.54267-.26 1.976-.78.43333-.5373.65-1.2133.65-2.028v-13.39h2.392zm10.8751 18.356c-1.3347 0-2.548-.3033-3.64-.91-1.0747-.6067-1.924-1.4647-2.548-2.574-.6067-1.1267-.91-2.4267-.91-3.9 0-1.456.312-2.7387.936-3.848.6413-1.1267 1.508-1.9847 2.6-2.574 1.092-.6067 2.314-.91 3.666-.91 1.352 0 2.574.3033 3.666.91 1.092.5893 1.95 1.4387 2.574 2.548.6413 1.1093.962 2.4007.962 3.874s-.3293 2.7733-.988 3.9c-.6413 1.1093-1.5167 1.9673-2.626 2.574-1.1093.6067-2.34.91-3.692.91zm0-2.08c.8493 0 1.6467-.1993 2.392-.598.7453-.3987 1.3433-.9967 1.794-1.794.468-.7973.702-1.768.702-2.912s-.2253-2.1147-.676-2.912c-.4507-.7973-1.04-1.3867-1.768-1.768-.728-.3987-1.5167-.598-2.366-.598-.8667 0-1.664.1993-2.392.598-.7107.3813-1.2827.9707-1.716 1.768s-.65 1.768-.65 2.912c0 1.1613.208 2.1407.624 2.938.4333.7973 1.0053 1.3953 1.716 1.794.7107.3813 1.4907.572 2.34.572zM33.642 12.438c-.4507 0-.832-.156-1.144-.468-.312-.312-.468-.6933-.468-1.144 0-.4507.156-.832.468-1.144.312-.312.6933-.468 1.144-.468.4333 0 .7973.156 1.092.468.312.312.468.6933.468 1.144 0 .4507-.156.832-.468 1.144-.2947.312-.6587.468-1.092.468zm1.144 2.314V29H32.42V14.752h2.366zm10.9744-.26c1.7333 0 3.1373.5287 4.212 1.586 1.0747 1.04 1.612 2.548 1.612 4.524V29h-2.34v-8.06c0-1.4213-.3553-2.5047-1.066-3.25-.7107-.7627-1.6813-1.144-2.912-1.144-1.248 0-2.2447.39-2.99 1.17-.728.78-1.092 1.9153-1.092 3.406V29h-2.366V14.752h2.366v2.028c.468-.728 1.1007-1.2913 1.898-1.69.8147-.3987 1.7073-.598 2.678-.598z" fill="#fff"/></svg>